<svg id="Layer_1" enable-background="new 0 0 512 512" height="512" viewBox="0 0 512 512" width="512" xmlns="http://www.w3.org/2000/svg"><g><g><path clip-rule="evenodd" d="m356.822 89.311c-5.415-6.917-12.133-8.335-16.442-6.634-4.479 1.077-9.213 6.095-9.695 14.855l-1.502 28.576c12.615-8.958 27.725-14.628 44.11-15.677z" fill="#2b4d66" fill-rule="evenodd"/></g><g><path clip-rule="evenodd" d="m401.13 89.311-16.47 21.12c16.385 1.077 31.523 6.719 44.11 15.677l-1.502-28.576c-.482-8.76-5.188-13.778-9.695-14.855-4.281-1.701-11.028-.283-16.443 6.634z" fill="#2b4d66" fill-rule="evenodd"/></g><g><path clip-rule="evenodd" d="m56.101 49.14c-11.68-7.513-32.09 8.476-43.033 24.749-6.378 9.554-3.827 22.538 5.698 28.916l.765.51c9.44 5.755 21.913 3.09 28.15-6.18 14.714-21.885 20.1-40.454 8.42-47.995z" fill="#365e7d" fill-rule="evenodd"/></g><g><path clip-rule="evenodd" d="m387.268 357.891c-17.491 6.549-38.894 8.533-56.612 8.93l5.103 67.074h44.734z" fill="#d0cee7" fill-rule="evenodd"/></g><g><path clip-rule="evenodd" d="m182.337 147.824c-23.217 12.247-119.262 103.106-147.582 121.306.397 39.859 2.268 71.979 5.443 113.964l3.855 50.802h44.734l4.592-56.188c2.92.397 5.925.595 8.958.595h29.908 53.919 55.308l4.196 55.593h44.734l6.038-67.414c2.863-.34 16.726.765 34.217.34 17.718-.397 39.121-2.381 56.612-8.93 18.937-7.087 33.253-19.561 33.309-41.248l.028-7.824c-40.17-56.755-69.936-143.674-152.628-160.797.68-.369-65.882-.199-85.641-.199z" fill="#dddaec" fill-rule="evenodd"/></g><g><path clip-rule="evenodd" d="m474.326 135.577c-10.631-11.113-28.632-13.069-41.842-6.605 0 18.852 5.767 28.232 11.012 44.533 2.069 6.35 7.5 10.932 20.001 13.696 19.22-3.203 37.533-14.373 40.482-28.321 2.891-13.664-6.181 1.276-29.653-23.303z" fill="#2b4d66" fill-rule="evenodd"/></g><g><path clip-rule="evenodd" d="m283.541 135.577c-6.18 6.464-11.339 10.206-15.563 12.445-11.85 6.265-16.215.794-14.089 10.858 2.948 13.948 21.346 24.749 40.567 27.952 11.533-6.468 34.727-39.009 30.928-57.861-13.211-6.463-31.184-4.507-41.843 6.606z" fill="#2b4d66" fill-rule="evenodd"/></g><g><path clip-rule="evenodd" d="m140.693 147.824c-51.226 0-94.259 36.826-103.954 85.303-1.332 6.719-2.041 13.636-2.041 20.723 0 5.216.028 10.319.057 15.28 11.396 6.152 56.017 24.749 73.252-12.899 27.867-60.866 83.656-5.103 74.33-108.407z" fill="#365e7d" fill-rule="evenodd"/></g><g><path clip-rule="evenodd" d="m335.759 433.895 1.502 19.788c.454 6.067 4.989 11.085 11.084 11.085h32.062c11.651 0 13.806-8.505 9.128-16.102l-9.043-14.77h-44.733z" fill="#365e7d" fill-rule="evenodd"/></g><g><path clip-rule="evenodd" d="m245.667 433.895 1.502 19.788c.482 6.067 4.989 11.085 11.084 11.085h32.09c11.623 0 13.777-8.505 9.128-16.102l-9.072-14.77h-44.732z" fill="#365e7d" fill-rule="evenodd"/></g><g><path clip-rule="evenodd" d="m132.245 378.303 4.224 55.592h44.734l4.961-55.592z" fill="#d0cee7" fill-rule="evenodd"/></g><g><path clip-rule="evenodd" d="m181.203 433.895h-44.734l1.502 19.788c.454 6.067 4.989 11.085 11.084 11.085h32.062c11.651 0 13.806-8.505 9.128-16.102z" fill="#365e7d" fill-rule="evenodd"/></g><g><path clip-rule="evenodd" d="m158.042 275.99c-11.906-2.58-25.542.652-32.998 9.214-14.713 16.924-8.59 35.55 3.6 45.529 11.538 9.469 28.547 11.141 38.27-3.912 5.386-8.335 11.283-12.927 16.981-16.159 10.942-6.208 21.12-7.399 25.429-20.298 7.314-21.971-17.803-38.98-34.954-24.635-6.207 5.187-8.447 11.962-16.328 10.261z" fill="#365e7d" fill-rule="evenodd"/></g><g><path clip-rule="evenodd" d="m250.033 284.552c-26.194 34.841 59.22 81.561 75.634 15.592-.454-.397-.907-.794-1.361-1.219-25.4-22.736-30.758-40.738-24.238-54.09l-1.446-18.427c-.482-6.294-1.502-12.587-2.41-18.909-61.175-.255-20.864 43.402-46.179 77.053z" fill="#365e7d" fill-rule="evenodd"/></g><g><path clip-rule="evenodd" d="m88.787 433.895h-44.734l1.502 19.788c.454 6.067 4.989 11.085 11.084 11.085h32.09c11.623 0 13.777-8.505 9.1-16.102z" fill="#365e7d" fill-rule="evenodd"/></g><g><path clip-rule="evenodd" d="m378.933 110.261c-20.241 0-38.866 7.002-53.55 18.71-13.097 10.433-23.047 24.579-28.292 40.88-1.843 5.67-2.551 11.34-2.636 16.981-.085 6.889.765 13.778 1.758 20.667.907 6.322 1.928 12.615 2.41 18.909l.765 9.695.68 8.732c18.143-20.355 139.389-17.491 157.504 2.183l2.069-27.045c.935-12.445 3.827-22.141 3.855-32.772.028-5.386-.652-10.999-2.721-17.35-5.245-16.301-15.195-30.447-28.292-40.88-14.684-11.708-33.309-18.71-53.55-18.71z" fill="#f9f6f6" fill-rule="evenodd"/></g><g><path clip-rule="evenodd" d="m457.572 247.018c-17.009-40.171-138.34-41.305-157.504-2.183-6.52 13.352-1.162 31.354 24.238 54.09l1.361 1.219c4.734 4.082 9.61 7.598 14.599 10.518 16.13 9.44 33.394 12.785 50.347 9.951 10.234-1.673 20.326-5.613 29.993-11.793 4.422-2.835 8.76-6.123 12.955-9.894 23.983-21.433 29.567-38.754 24.011-51.908z" fill="#d09080" fill-rule="evenodd"/></g><g><path clip-rule="evenodd" d="m432.484 128.972c-13.636-10.886-30.645-17.69-49.213-18.625 8.278 3.203 15.96 7.626 22.764 13.069 13.097 10.404 23.076 24.579 28.32 40.88 2.041 6.35 2.721 11.963 2.721 17.35-.057 10.631-2.948 20.326-3.884 32.772l-.85 11.311c12.161 5.075 21.375 12.19 25.23 21.29l2.069-27.045c.935-12.445 3.827-22.141 3.855-32.772.028-5.386-.652-10.999-2.721-17.35-5.244-16.302-15.194-30.448-28.291-40.88z" fill="#dddaec" fill-rule="evenodd"/></g><g><path clip-rule="evenodd" d="m421.938 263.602c-3.629 4.451-8.136 9.128-13.607 14.033-4.224 3.77-8.533 7.059-12.955 9.894-9.667 6.18-19.787 10.092-30.021 11.793-16.924 2.807-34.188-.51-50.347-9.951-.368-.227-.737-.454-1.106-.68 3.005 3.317 6.463 6.719 10.404 10.234l1.361 1.219c4.734 4.082 9.61 7.598 14.599 10.518 16.13 9.44 33.394 12.785 50.347 9.951 10.234-1.673 20.326-5.613 29.993-11.793 4.422-2.835 8.76-6.123 12.955-9.894 23.983-21.432 29.567-38.753 24.011-51.907-3.855-9.1-13.069-16.216-25.23-21.29 1.446 3.43 2.126 7.144 1.928 11.141-.369 7.823-4.168 16.725-12.332 26.732z" fill="#ce775f" fill-rule="evenodd"/></g><g><path clip-rule="evenodd" d="m390.613 320.612c-16.952 2.835-34.217-.51-50.347-9.951-4.989-2.92-9.865-6.435-14.599-10.518-2.636 10.631-7.059 18.342-12.558 23.643.255.198.482.425.709.624 20.836 18.342 54.627 22.141 98.794 16.386 4.989-6.379 7.938-14.316 7.966-24.154l.028-7.824c-9.667 6.181-19.759 10.122-29.993 11.794z" fill="#d0cee7" fill-rule="evenodd"/></g><g><path clip-rule="evenodd" d="m296.213 207.499c-7.626-.028-13.664.624-18.455 1.843 2.183 14.94 3.232 29.341 4.394 44.395-2.75 20.667-1.616 40.624 30.956 70.051 5.5-5.301 9.922-13.012 12.558-23.643l-1.361-1.219c-3.94-3.515-7.399-6.917-10.404-10.234-16.385-17.973-19.334-32.573-13.834-43.856l-.68-8.732-.765-9.695c-.482-6.295-1.502-12.588-2.409-18.91z" fill="#2b4d66" fill-rule="evenodd"/></g><g><path clip-rule="evenodd" d="m294.455 186.832c-6.889-1.134-13.636-3.26-19.645-6.152-10.772-5.188-19.022-12.842-20.921-21.801-2.126-10.064 2.24-4.593 14.089-10.858.312-.17-20.553-.227-38.951-.227-5.358 47.967 46.775 48.42 48.731 61.546 4.791-1.219 10.829-1.871 18.455-1.843-.993-6.887-1.843-13.776-1.758-20.665z" fill="#d0cee7" fill-rule="evenodd"/></g><g><path d="m345.964 174.059c-4.142 0-7.5 3.358-7.5 7.5v5.755c0 4.143 3.358 7.5 7.5 7.5s7.5-3.358 7.5-7.5v-5.755c0-4.143-3.358-7.5-7.5-7.5z"/><path d="m411.988 174.059c-4.142 0-7.5 3.358-7.5 7.5v5.755c0 4.143 3.358 7.5 7.5 7.5s7.5-3.358 7.5-7.5v-5.755c0-4.143-3.358-7.5-7.5-7.5z"/><path d="m353.732 252.246c-4.142 0-7.5 3.358-7.5 7.5v12.133c0 4.143 3.358 7.5 7.5 7.5s7.5-3.358 7.5-7.5v-12.133c0-4.142-3.358-7.5-7.5-7.5z"/><path d="m404.22 279.38c4.142 0 7.5-3.358 7.5-7.5v-12.133c0-4.143-3.358-7.5-7.5-7.5s-7.5 3.358-7.5 7.5v12.133c0 4.143 3.358 7.5 7.5 7.5z"/><g><path d="m205.085 258.119c-11.154-7.595-25.099-6.867-35.524 1.855-2.213 1.849-3.908 3.74-5.403 5.409-3.188 3.56-3.397 3.526-4.528 3.277-15.161-3.285-31.33 1.383-40.248 11.626-10.275 11.829-13.12 26.263-7.807 39.603 5.515 13.844 18.696 24.072 32.799 25.449 1.046.103 2.084.153 3.11.153 10.404 0 19.658-5.205 25.732-14.601 6.726-10.418 14.305-13.926 21.634-17.317 8.106-3.751 17.293-8.002 21.59-20.839 4.432-13.314-.025-26.9-11.355-34.615zm-2.873 29.863c-2.149 6.419-5.741 8.31-13.661 11.976-8.399 3.887-18.852 8.724-27.934 22.79-3.673 5.681-8.649 8.259-14.783 7.659-8.393-.819-16.939-7.578-20.322-16.07-2.272-5.702-3.215-14.533 5.189-24.207 4.148-4.763 11.453-7.515 19.106-7.515 2.209 0 4.447.229 6.646.706.002 0 .004.001.006.001 9.857 2.124 15.283-3.924 18.872-7.929 1.269-1.417 2.468-2.755 3.852-3.911 6.245-5.223 13.113-3.922 17.459-.963 4.487 3.053 8.305 9.249 5.57 17.463z"/><path d="m510.326 149.063c-2.337-3.564-5.994-4.312-8.665-4.857-4.053-.828-10.837-2.214-21.915-13.814-10.811-11.301-28.322-15.36-43.809-10.778l-1.18-22.494c-.678-12.328-7.894-19.661-14.919-21.604-6.867-2.45-16.982-.578-24.621 9.182l-14.117 18.103c-.693-.015-1.384-.041-2.08-.041-.724 0-1.443.027-2.164.043l-14.127-18.115c-7.622-9.738-17.742-11.614-24.611-9.171-7.024 1.946-14.244 9.284-14.923 21.622l-1.183 22.499c-15.49-4.611-33.04-.559-43.894 10.759-4.658 4.877-8.554 7.943-11.81 9.926h-125.615c-49.435 0-91.582 31.782-107.111 75.988-16.101-24.427-27.257-59.426-9.998-103.297 2.193.542 4.444.831 6.721.831 1.837 0 3.688-.179 5.532-.541 7.435-1.459 13.851-5.715 18.068-11.985 12.575-18.705 17.796-33.809 15.517-44.893-1.181-5.743-4.381-10.442-9.264-13.594-16.968-10.917-41.391 9.143-53.313 26.871-.005.007-.009.015-.014.021-7.653 11.464-5.845 26.529 3.567 35.875-24.546 60.166-.356 105.9 18.346 129.568-1.011 6.08-1.545 12.32-1.545 18.682 0 5.157.024 10.151.068 15.028-.007.206-.005.412.006.617.381 40.449 2.266 72.426 5.448 114.166l5.357 70.582c.768 10.276 8.749 18.025 18.564 18.025h32.09c10.603 0 15.161-5.326 16.935-8.501 3.059-5.476 2.518-12.59-1.439-19.018l-7.765-12.682 3.784-46.292c.696.019 1.394.028 2.092.028h22.963l5.191 68.44c.768 10.276 8.749 18.025 18.563 18.025h32.062c10.624 0 15.188-5.33 16.963-8.508 3.058-5.474 2.517-12.587-1.439-19.011l-7.748-12.655 4.142-46.291h41.48l3.681 48.696c.006.073.009.146.016.218l1.479 19.56c.815 10.256 8.794 17.991 18.561 17.991h32.09c10.592 0 15.154-5.319 16.931-8.489 3.065-5.468 2.539-12.582-1.412-19.039l-7.77-12.651 5.199-58.046c.34.011.679.022 1.012.033 4.928.161 11.641.381 19.408.352l6.069 79.815c.768 10.276 8.749 18.025 18.564 18.025h32.062c10.624 0 15.188-5.33 16.963-8.508 3.058-5.473 2.517-12.587-1.438-19.011l-7.749-12.656 6.154-69.042c7.449-3.223 14.17-7.316 19.587-12.541 9.348-9.018 14.11-20.404 14.153-33.841l.014-3.845c3.575-2.495 7.071-5.265 10.47-8.31 23.465-20.987 32.522-40.411 26.922-57.731-.066-.203-.145-.402-.215-.604.042-.24.074-.484.093-.731l1.446-18.453c.386-4.914 1.109-9.832 1.875-15.038.901-6.124 1.81-12.338 2.173-18.646 18.035-4.542 36.894-16.004 40.461-32.879.764-3.605 1.38-7.755-.989-11.368zm-491.026-71c11.045-16.418 27.234-26.155 32.734-22.621 1.513.978 2.319 2.176 2.696 4.007.651 3.168.662 12.775-13.272 33.501-1.982 2.946-5.003 4.948-8.508 5.635-3.503.689-7.054-.023-10.01-2.011-6.093-4.081-7.724-12.382-3.64-18.511zm387.736 15.872c3.326-4.248 6.666-4.724 7.766-4.287.334.133.677.241 1.027.325 1.161.277 3.654 2.591 3.948 7.953l.761 14.501c-6.916-3.414-14.289-5.989-21.982-7.617zm-68.862 4.01c.296-5.377 2.796-7.695 3.96-7.975.622-.15 1.183-.446 1.834-.446 1.516 0 4.241.953 6.94 4.401l8.489 10.885c-.221.047-.436.102-.649.162-7.462 1.64-14.617 4.169-21.337 7.495zm-49.22 42.824c5.246-5.472 13.272-8.253 21.284-7.955-8.967 9.741-15.946 21.494-20.2 34.734-1.141 3.535-1.903 6.859-2.392 10.041-13.281-3.898-23.736-11.406-26.14-19.181 5.739-1.343 14.973-4.576 27.448-17.639zm28.203 161.791c-4.394 13.402-12.609 21.339-23.967 23.011-13.844 2.039-30.795-5.866-37.781-17.622-3.978-6.696-3.77-13.051.617-18.887 11.512-15.298 11.275-32.169 11.086-45.725-.158-11.268-.047-18.383 4.036-22.501 3.258-3.285 9.676-5.183 19.129-5.693.217 1.761.415 3.549.556 5.405l1.747 22.714c-.331.779-.641 1.565-.906 2.365-5.623 16.948 2.952 36.094 25.483 56.933zm-224.586 153.889c-.119.162-1.177.818-3.841.818h-32.09c-2.163 0-3.451-2.084-3.606-4.152l-.889-11.719h32.44l6.858 11.201c1.3 2.111 1.28 3.584 1.128 3.852zm92.415-.007c-.12.164-1.184.825-3.868.825h-32.062c-2.163 0-3.45-2.084-3.605-4.152l-.889-11.719h32.439l6.858 11.201c1.298 2.108 1.279 3.577 1.127 3.845zm-10.642-30.047h-30.92l-3.079-40.593h37.631zm119.846 30.05c-.115.163-1.16.822-3.845.822h-32.09c-2.151 0-3.443-2.102-3.606-4.15l-.886-11.721h32.444l6.868 11.183c1.318 2.156 1.251 3.638 1.115 3.866zm90.086-.003c-.12.164-1.184.825-3.868.825h-32.062c-2.163 0-3.451-2.084-3.606-4.153l-.891-11.718h32.442l6.858 11.201c1.297 2.107 1.278 3.577 1.127 3.845zm-10.645-30.047h-30.923l-3.982-52.364c12.816-.645 26.929-2.229 40.08-5.693zm29.879-86.681c-4.81 4.64-11.097 8.205-18.203 10.949-.46.125-.902.292-1.325.499-16.136 5.919-36.205 7.757-53.041 8.168-.282-.011-.566-.009-.855.012-.027.002-.053.008-.079.01-10.212.219-19.17-.07-25.212-.269-5.22-.171-7.597-.238-9.211-.054-3.535.405-6.299 3.238-6.616 6.783l-5.426 60.583h-30.914l-3.678-48.659c-.295-3.911-3.556-6.935-7.479-6.935h-107.967c-.591-.1-31.166 0-31.166 0-2.702 0-5.376-.177-7.949-.526-2.039-.276-4.104.298-5.709 1.586-1.605 1.29-2.609 3.183-2.776 5.235l-4.029 49.299h-30.868l-3.33-43.872c-2.852-37.412-4.654-66.906-5.255-101.786 7.694 2.891 18.422 5.917 29.617 5.917 5.449 0 11.01-.718 16.382-2.518 11.804-3.954 20.688-12.293 26.404-24.778 3.988-8.692 8.793-15.262 14.688-20.088 3.205-2.624 3.676-7.35 1.052-10.555-2.623-3.205-7.349-3.675-10.555-1.053-7.702 6.305-13.858 14.627-18.822 25.446-3.977 8.688-9.712 14.184-17.532 16.805-13.559 4.542-30.915-.612-41.423-5.44-.022-3.474-.034-7.006-.034-10.624 0-54.327 44.184-98.525 98.495-98.525h34.704c2.996 46.22-9.599 51.609-18.064 55.228-3.809 1.629-5.576 6.036-3.947 9.845 1.217 2.848 3.988 4.554 6.9 4.554.983 0 1.984-.194 2.945-.605 18.332-7.839 29.993-22.871 27.188-69.022h55.452c.024 1.747.335 3.482.679 5.107 3.553 16.808 22.083 28.029 40.65 32.56.201 2.446.507 4.855.855 7.263-12.841.881-21.705 4.116-27.559 10.02-8.727 8.801-8.552 21.242-8.383 33.273.174 12.437.355 25.297-8.074 36.498-8.043 10.698-8.599 23.661-1.525 35.566 9.019 15.178 27.967 25.287 46.1 25.287 2.273 0 4.534-.159 6.761-.487 9.422-1.387 25.213-6.944 34.059-27.829 15.397 10.836 32.301 16.509 49.5 16.509 11.526 0 22.916-2.563 33.811-7.502-.96 7.114-4.004 13.078-9.236 18.125zm50.331-129.938c-.768 5.223-1.563 10.624-1.989 16.046l-.178 2.276c-12.106-9.467-30.87-15.904-54.639-18.391-4.111-.439-7.809 2.559-8.24 6.679-.431 4.119 2.56 7.809 6.68 8.24 29.6 3.097 51.478 13.606 55.736 26.774 4.494 13.897-9.836 30.475-22.653 41.94-3.817 3.419-7.726 6.413-11.702 8.993-.192.111-.379.229-.559.356-28.254 18.018-59.908 14.906-86.987-9.352-18.996-17.001-27.086-31.866-23.397-42.987.315-.949.791-1.806 1.185-2.718 6.314-11.793 27.331-20.791 55.045-23.279 4.126-.37 7.17-4.015 6.8-8.141s-4.025-7.175-8.141-6.799c-23.226 2.085-42.071 8.234-54.446 17.34l-.565-7.345c-.441-5.829-1.26-10.934-2.051-15.871-1.772-11.046-3.171-19.771.58-31.39 10.451-32.529 40.471-54.385 74.701-54.385 34.22 0 64.252 21.858 74.729 54.385 3.858 12.013 2.029 24.456.091 37.629zm16.513-31.873c-.471-3.423-1.209-6.872-2.327-10.351-4.267-13.247-11.258-25.005-20.235-34.748 7.961-.258 15.911 2.52 21.109 7.954 12.485 13.074 21.72 16.306 27.457 17.651-2.412 7.808-12.962 15.533-26.004 19.494z"/></g></g></g></svg>