<svg id="Capa_1" enable-background="new 0 0 512 512" height="512" viewBox="0 0 512 512" width="512" xmlns="http://www.w3.org/2000/svg"><g><path d="m481.91 330.814v149.72c0 5.52-4.48 10-10 10h-431.82c-5.52 0-10-4.48-10-10v-149.72z" fill="#a96a53"/><path d="m481.91 330.814v149.72c0 5.52-4.48 10-10 10h-47.77c5.52 0 10-4.48 10-10v-149.72z" fill="#925b46"/><path d="m30.09 330.814h19.28c-5.9 3-12.47 4.59-19.28 4.59z" fill="#fcb44d"/><path d="m77.86 330.814h85.19v10.92c0 23.49-19.11 42.59-42.6 42.59-.5 0-1.02-.01-1.53-.03-23.02-.81-41.06-19.75-41.06-43.1z" fill="#925b46"/><path d="m282.15 330.814h38.24c-5.77 2.94-12.3 4.59-19.21 4.59-.51 0-1.02-.01-1.53-.03-6.37-.22-12.27-1.82-17.5-4.56z" fill="#fcb44d"/><path d="m348.95 330.814h85.19v10.92c0 23.49-19.11 42.59-42.59 42.59-.51 0-1.03-.01-1.54-.03-23.02-.81-41.06-19.75-41.06-43.1z" fill="#925b46"/><g><path d="m30.09 389.674h451.82v42h-451.82z" fill="#fee7c9"/></g><path d="m434.14 389.674h47.77v42h-47.77z" fill="#ffd597"/><path d="m30.09 205.594h451.82v136.23h-451.82z" fill="#fb4a59"/><path d="m30.09 205.594v129.81c11.38 0 22.07-4.43 30.12-12.47 8.04-8.05 12.47-18.74 12.47-30.12 0-1.43 1.16-2.59 2.59-2.59h.12c1.29.05 2.47 1.54 2.47 3.13v47.84c0 .21 0 .42.01.63h85.18v-73.39c0-1.59 1.18-3.08 2.47-3.13h.12c1.42 0 2.59 1.16 2.59 2.59 0 23.48 19.1 42.59 42.59 42.59 23.48 0 42.59-19.11 42.59-42.59 0-1.43 1.16-2.59 2.59-2.59h.11c1.3.05 2.48 1.54 2.48 3.13v19.43c0 26.68 17.27 46.67 41.06 47.51.51.02 1.02.03 1.53.03 23.49 0 42.59-19.11 42.59-42.59 0-1.43 1.17-2.59 2.59-2.59h.12c1.29.05 2.47 1.54 2.47 3.13v47.84c0 .21 0 .42.01.63h132.95v-136.23h-451.82z" fill="#f82f40"/><path d="m210.373 101.196c10.847 18.031 10.527 39.665 1.035 56.846-19.626.335-38.898-9.512-49.745-27.543-9.531-15.842-10.437-34.461-4.085-50.392 1.629-4.085 5.828-6.61 10.199-6.133 17.052 1.857 33.065 11.379 42.596 27.222z" fill="#83d167"/><path d="m211.41 158.044c-4.18.07-8.35-.32-12.42-1.16 2.71-13.43.6-27.87-7.02-40.53-8.54-14.19-22.28-23.31-37.32-26.39.68-3.37 1.66-6.67 2.93-9.86 1.63-4.08 5.83-6.61 10.2-6.13 17.05 1.86 33.06 11.38 42.59 27.22 10.85 18.03 10.53 39.67 1.04 56.85z" fill="#6bc94d"/><path d="m301.628 101.196c-10.847 18.031-10.527 39.665-1.035 56.846 19.626.335 38.898-9.512 49.745-27.543 9.531-15.842 10.437-34.461 4.085-50.392-1.629-4.085-5.828-6.61-10.199-6.133-17.053 1.857-33.066 11.379-42.596 27.222z" fill="#83d167"/><path d="m350.34 130.494c-10.85 18.04-30.12 27.88-49.75 27.55-.61-1.11-1.19-2.24-1.72-3.38 11.86-4.28 22.39-12.51 29.4-24.17 10.15-16.87 10.52-36.9 2.75-53.47 4.216-1.518 8.6-2.539 13.054-3.037 4.425-.494 8.7 1.988 10.349 6.123 6.351 15.929 5.444 34.544-4.083 50.384z" fill="#6bc94d"/><path d="m198.783 116.145c0-36.52 17.112-69.044 43.753-89.997 7.889-6.204 19.04-6.205 26.929-.001 26.648 20.953 43.751 53.477 43.751 89.998 0 26.556-25.617 48.084-57.217 48.084s-57.216-21.528-57.216-48.084z" fill="#fb4a59"/><path d="m313.22 116.144c0 26.56-25.62 48.08-57.22 48.08-4.84 0-9.53-.5-14.02-1.45 24.82-5.26 43.19-24.14 43.19-46.63 0-36.26-16.86-68.59-43.19-89.55.18-.15.37-.3.56-.45 7.89-6.2 19.04-6.2 26.93 0 26.64 20.95 43.75 53.48 43.75 90z" fill="#f82f40"/><circle cx="149.768" cy="168.786" fill="#a96a53" r="40.641"/><path d="m190.41 168.784c0 22.45-18.2 40.64-40.64 40.64-5.54 0-10.82-1.11-15.64-3.11 14.69-6.13 25.01-20.62 25.01-37.53 0-16.9-10.32-31.4-25.01-37.53 4.82-2 10.1-3.11 15.64-3.11 22.44 0 40.64 18.2 40.64 40.64z" fill="#925b46"/><circle cx="220.589" cy="168.786" fill="#a96a53" r="40.641"/><path d="m261.23 168.784c0 22.45-18.2 40.64-40.64 40.64-5.54 0-10.82-1.11-15.64-3.11 14.69-6.13 25.01-20.62 25.01-37.53 0-16.9-10.32-31.4-25.01-37.53 4.82-2 10.1-3.11 15.64-3.11 22.44 0 40.64 18.2 40.64 40.64z" fill="#925b46"/><circle cx="291.411" cy="168.786" fill="#a96a53" r="40.641"/><path d="m332.05 168.784c0 22.45-18.19 40.64-40.64 40.64-5.54 0-10.82-1.11-15.63-3.12 14.69-6.12 25.01-20.61 25.01-37.52 0-16.9-10.32-31.39-25.01-37.52 4.81-2.01 10.09-3.12 15.63-3.12 22.45 0 40.64 18.2 40.64 40.64z" fill="#925b46"/><circle cx="362.232" cy="168.786" fill="#a96a53" r="40.641"/><path d="m402.87 168.784c0 22.45-18.19 40.64-40.64 40.64-5.54 0-10.82-1.11-15.63-3.11 14.68-6.13 25.01-20.62 25.01-37.53 0-16.9-10.33-31.4-25.01-37.53 4.81-2 10.09-3.11 15.63-3.11 22.45 0 40.64 18.2 40.64 40.64z" fill="#925b46"/><g><path d="m7.5 293.124c0 9.248 5.642 17.724 14.355 20.823 15.934 5.667 30.827-5.994 30.827-21.133 0-12.75 10.563-23.033 23.415-22.576 12.242.435 21.767 10.868 21.767 23.118v47.838c0 12.25 9.525 22.682 21.767 23.118 12.852.457 23.415-9.826 23.415-22.576v-73.301c0-12.25 9.525-22.682 21.767-23.118 12.852-.457 23.415 9.826 23.415 22.576 0 12.477 10.114 22.591 22.591 22.591s22.591-10.114 22.591-22.591c0-12.75 10.563-23.033 23.415-22.576 12.242.435 21.767 10.868 21.767 23.118v19.431c0 16.663 9.525 27.09 21.767 27.525 12.852.457 23.415-9.826 23.415-22.576s10.563-23.033 23.415-22.576c12.242.435 21.767 10.868 21.767 23.118v47.838c0 12.25 9.525 22.682 21.767 23.118 12.852.457 23.415-9.826 23.415-22.576v-97.301c0-12.25 9.525-22.682 21.767-23.118 12.852-.457 23.415 9.826 23.415 22.576v48.38c0 12.25 9.525 22.682 21.767 23.118 12.852.457 23.415-9.826 23.415-22.576v-89.568c0-13.807-11.193-25-25-25h-447c-13.807 0-25 11.193-25 25z" fill="#fee7c9"/><path d="m504.5 203.244v89.57c0 12.75-10.56 23.03-23.41 22.58-6.85-.25-12.85-3.62-16.79-8.68 3-3.83 4.79-8.66 4.79-13.9v-89.57c0-13.81-11.19-25-25-25h35.41c13.81 0 25 11.19 25 25z" fill="#ffd597"/><g><path d="m226.784 114.663h.113.033c4.127 0 7.481-3.336 7.5-7.468.018-4.142-3.326-7.514-7.468-7.532h-.112c-.011 0-.022 0-.033 0-4.127 0-7.481 3.336-7.5 7.467-.019 4.143 3.324 7.515 7.467 7.533z"/><path d="m256.082 99.664h-.113c-.011 0-.022 0-.033 0-4.127 0-7.481 3.337-7.5 7.468-.018 4.142 3.326 7.514 7.468 7.532h.113.033c4.127 0 7.481-3.337 7.5-7.468.017-4.142-3.326-7.514-7.468-7.532z"/><path d="m285.025 114.663h.113.033c4.127 0 7.481-3.337 7.5-7.468.018-4.142-3.326-7.514-7.468-7.532h-.113c-.011 0-.022 0-.033 0-4.127 0-7.481 3.337-7.5 7.468-.017 4.142 3.326 7.514 7.468 7.532z"/><path d="m255.904 59.307h.113.033c4.127 0 7.481-3.337 7.5-7.468.018-4.142-3.326-7.514-7.468-7.532h-.113c-.011 0-.022 0-.033 0-4.127 0-7.481 3.337-7.5 7.468-.017 4.142 3.326 7.514 7.468 7.532z"/><path d="m241.344 86.985h.113.033c4.127 0 7.481-3.337 7.5-7.468.018-4.142-3.326-7.514-7.468-7.532h-.113c-.011 0-.022 0-.033 0-4.127 0-7.481 3.337-7.5 7.468-.018 4.142 3.326 7.514 7.468 7.532z"/><path d="m270.465 86.985h.113.033c4.127 0 7.481-3.337 7.5-7.468.018-4.142-3.326-7.514-7.468-7.532h-.113c-.011 0-.022 0-.033 0-4.127 0-7.481 3.337-7.5 7.468-.018 4.142 3.326 7.514 7.468 7.532z"/><path d="m479.5 170.746h-69.187c.026-.654.061-1.307.061-1.959 0-26.305-21.211-47.738-47.426-48.123 4.481-14.064 4.024-29.334-1.558-43.333-2.873-7.206-10.269-11.65-17.978-10.812-10.389 1.132-20.418 4.837-29.044 10.628-7.453-22.187-21.252-41.945-40.266-56.896-10.657-8.38-25.544-8.379-36.201.002-19.009 14.95-32.805 34.701-40.26 56.877-8.631-5.828-18.541-9.467-29.052-10.612-7.712-.842-15.105 3.606-17.978 10.812-5.582 14-6.039 29.269-1.558 43.334-26.215.385-47.426 21.818-47.426 48.123 0 .652.035 1.306.061 1.959h-69.188c-17.92 0-32.5 14.58-32.5 32.5v89.878c0 12.567 7.773 23.775 19.342 27.889 1.077.383 2.162.698 3.249.964v125.566c0 4.142 3.358 7.5 7.5 7.5s7.5-3.358 7.5-7.5v-8.365h436.818v41.356c0 1.378-1.122 2.5-2.5 2.5h-431.818c-1.378 0-2.5-1.122-2.5-2.5 0-4.142-3.358-7.5-7.5-7.5s-7.5 3.358-7.5 7.5c0 9.649 7.851 17.5 17.5 17.5h431.818c9.649 0 17.5-7.851 17.5-17.5v-158.571c4.987-1.273 9.58-3.815 13.394-7.496 5.931-5.723 9.197-13.414 9.197-21.654v-89.568c0-17.92-14.58-32.499-32.5-32.499zm-134.465-89.316c1.019-.114 2.04.5 2.42 1.455 5.301 13.292 4.59 28.073-1.892 40.738-7.205 2.668-13.6 7.015-18.714 12.562-2.401-2.623-5.073-4.934-7.946-6.937 1.199-4.273 1.814-8.664 1.814-13.104 0-7.932-.763-15.741-2.231-23.35 7.452-6.286 16.791-10.301 26.549-11.364zm-157.526 89.316c-.038-.653-.061-1.307-.061-1.959 0-18.274 14.867-33.141 33.141-33.141 10.727 0 20.576 5.068 26.811 13.665-2.648 5.959-4.131 12.546-4.131 19.476 0 .652.034 1.306.061 1.959zm70.821 0c-.038-.653-.061-1.307-.061-1.959 0-18.274 14.867-33.141 33.141-33.141 10.73 0 20.576 5.069 26.811 13.666-2.647 5.959-4.131 12.545-4.131 19.475 0 .653.034 1.306.061 1.959zm-11.157-138.703c5.197-4.088 12.458-4.088 17.657-.001 25.984 20.431 40.887 51.085 40.887 84.103 0 2.18-.22 4.344-.641 6.477-4.368-1.282-8.954-1.976-13.665-1.976-13.98 0-26.582 5.994-35.385 15.542-9.025-9.855-21.739-15.542-35.437-15.542-4.746 0-9.329.701-13.663 1.987-.422-2.136-.643-4.304-.643-6.487 0-33.012 14.904-63.665 40.89-84.103zm-82.629 50.842c.38-.955 1.395-1.571 2.42-1.455 9.862 1.074 19.029 5.005 26.55 11.366-1.468 7.609-2.231 15.418-2.231 23.349 0 4.455.62 8.861 1.827 13.147-2.887 2.015-5.547 4.333-7.926 6.916-5.2-5.654-11.628-9.946-18.741-12.572-6.487-12.667-7.201-27.454-1.899-40.751zm-47.918 85.901c0-18.274 14.867-33.141 33.141-33.141 10.64 0 20.568 5.097 26.807 13.676-2.645 5.956-4.126 12.539-4.126 19.465 0 .652.035 1.306.061 1.959h-55.822c-.038-.652-.061-1.306-.061-1.959zm-26.262 165.534h-52.773v-12.354c3.479-.892 6.803-2.415 9.835-4.554 7.987-5.637 12.756-14.833 12.756-24.598 0-4.133 1.638-7.99 4.613-10.86 2.973-2.869 6.898-4.364 11.036-4.221 8.014.285 14.533 7.293 14.533 15.623zm-52.773 62.855h107.712c4.142 0 7.5-3.358 7.5-7.5s-3.358-7.5-7.5-7.5h-107.712v-32.855h53.884c3.459 12.514 14.648 22.015 27.89 22.486 8.257.293 16.056-2.696 21.984-8.417 4.061-3.919 6.871-8.761 8.24-14.069h212.977c3.459 12.514 14.648 22.015 27.89 22.486.37.013.739.02 1.107.02 7.837 0 15.215-2.973 20.877-8.437 4.061-3.919 6.871-8.761 8.24-14.069h53.73v32.855h-296.117c-4.142 0-7.5 3.358-7.5 7.5s3.358 7.5 7.5 7.5h296.116v27.003h-436.818zm262.5-74.29c8.249.293 16.057-2.696 21.985-8.417 5.931-5.724 9.197-13.414 9.197-21.654 0-4.133 1.638-7.99 4.613-10.861 2.973-2.869 6.889-4.359 11.035-4.22 8.014.285 14.533 7.293 14.533 15.623v40.965h-210.909v-65.886c0-8.33 6.52-15.337 14.534-15.623 4.14-.151 8.063 1.352 11.035 4.221 2.975 2.871 4.613 6.728 4.613 10.86 0 16.592 13.499 30.091 30.091 30.091s30.091-13.499 30.091-30.091c0-4.133 1.638-7.99 4.613-10.861 2.972-2.869 6.894-4.367 11.035-4.22 8.014.285 14.534 7.293 14.534 15.623v19.431c0 20.012 11.925 34.412 29 35.019zm174.318-.965v12.4h-52.773v-89.886c0-8.33 6.52-15.337 14.534-15.623 4.13-.143 8.063 1.352 11.036 4.221 2.975 2.871 4.613 6.728 4.613 10.86v48.379c-.001 14.066 9.675 26.205 22.59 29.649zm22.591-29.106c0 4.133-1.638 7.99-4.613 10.861-2.972 2.868-6.896 4.363-11.035 4.22-8.014-.285-14.534-7.293-14.534-15.623v-48.379c0-8.241-3.266-15.931-9.196-21.654-5.928-5.722-13.726-8.704-21.985-8.417-15.991.568-29 14.301-29 30.613v97.3c0 4.133-1.638 7.99-4.613 10.861-2.972 2.869-6.892 4.371-11.035 4.22-8.014-.285-14.534-7.293-14.534-15.623v-47.838c0-16.312-13.01-30.044-29-30.613-8.249-.293-16.056 2.696-21.984 8.417-5.931 5.723-9.197 13.414-9.197 21.654 0 4.132-1.638 7.989-4.613 10.86-2.974 2.869-6.895 4.359-11.036 4.221-8.693-.309-14.533-8.358-14.533-20.03v-19.431c0-16.312-13.01-30.044-29-30.613-8.25-.285-16.056 2.696-21.984 8.417-5.931 5.724-9.197 13.414-9.197 21.654 0 8.321-6.77 15.091-15.091 15.091s-15.091-6.77-15.091-15.091c0-8.24-3.266-15.931-9.197-21.654-5.929-5.722-13.75-8.718-21.984-8.417-15.991.568-29.001 14.301-29.001 30.613v73.3c0 4.133-1.638 7.99-4.613 10.861-2.973 2.869-6.888 4.371-11.035 4.22-8.014-.285-14.534-7.293-14.534-15.623v-47.838c0-16.312-13.01-30.044-29-30.613-8.255-.292-16.057 2.696-21.985 8.417-5.931 5.723-9.197 13.414-9.197 21.654 0 4.898-2.394 9.512-6.404 12.342-4.161 2.937-9.279 3.549-14.409 1.725-5.605-1.99-9.37-7.519-9.37-13.754v-89.878c0-9.649 7.851-17.5 17.5-17.5h317.215c4.142 0 7.5-3.358 7.5-7.5s-3.358-7.5-7.5-7.5h-20.563c-.038-.652-.06-1.306-.06-1.959 0-18.274 14.867-33.141 33.141-33.141s33.141 14.867 33.141 33.141c0 .652-.023 1.307-.06 1.959h-12.607c-4.142 0-7.5 3.358-7.5 7.5s3.358 7.5 7.5 7.5h96.793c9.649 0 17.5 7.851 17.5 17.5z"/></g></g></g></svg>