<svg id="Capa_1" enable-background="new 0 0 511.998 511.998" height="512" viewBox="0 0 511.998 511.998" width="512" xmlns="http://www.w3.org/2000/svg"><g><g><g><path d="m245.899 173.165h-145.465c-5.578 0-10.1-4.522-10.1-10.1v-145.465c0-5.578 4.522-10.1 10.1-10.1h145.464c5.578 0 10.1 4.522 10.1 10.1v145.464c.001 5.579-4.521 10.101-10.099 10.101z" fill="#865240"/><path d="m256 17.599v145.466c0 5.575-4.525 10.1-10.1 10.1h-28.443c5.586 0 10.1-4.525 10.1-10.1v-145.466c0-5.575-4.515-10.1-10.1-10.1h28.443c5.575 0 10.1 4.525 10.1 10.1z" fill="#7b4b39"/><g><path d="m202.018 134.335h-57.704c-8.367 0-15.151-6.783-15.151-15.151v-57.703c0-8.367 6.783-15.151 15.151-15.151h57.704c8.367 0 15.151 6.783 15.151 15.151v57.704c0 8.367-6.783 15.15-15.151 15.15z" fill="#ba7c65"/><path d="m217.174 61.476v57.714c0 8.363-6.788 15.151-15.151 15.151h-31.746c8.373 0 15.151-6.788 15.151-15.151v-57.714c0-8.363-6.777-15.151-15.151-15.151h31.746c8.363 0 15.151 6.787 15.151 15.151z" fill="#a96a53"/></g></g><g><path d="m245.899 338.832h-145.465c-5.578 0-10.1-4.522-10.1-10.1v-145.465c0-5.578 4.522-10.1 10.1-10.1h145.464c5.578 0 10.1 4.522 10.1 10.1v145.464c.001 5.579-4.521 10.101-10.099 10.101z" fill="#a96a53"/><path d="m256 183.266v145.466c0 5.575-4.525 10.1-10.1 10.1h-28.443c5.586 0 10.1-4.525 10.1-10.1v-145.466c0-5.575-4.515-10.1-10.1-10.1h28.443c5.575-.001 10.1 4.524 10.1 10.1z" fill="#925b46"/><g><path d="m202.018 300.002h-57.704c-8.367 0-15.151-6.783-15.151-15.151v-57.704c0-8.367 6.783-15.151 15.151-15.151h57.704c8.367 0 15.151 6.783 15.151 15.151v57.704c0 8.368-6.783 15.151-15.151 15.151z" fill="#c58d7c"/><path d="m217.174 227.142v57.714c0 8.363-6.788 15.151-15.151 15.151h-31.746c8.373 0 15.151-6.788 15.151-15.151v-57.714c0-8.363-6.777-15.151-15.151-15.151h31.746c8.363 0 15.151 6.788 15.151 15.151z" fill="#ba7c65"/></g></g><g><path d="m245.899 504.498h-145.465c-5.578 0-10.1-4.522-10.1-10.1v-145.465c0-5.578 4.522-10.1 10.1-10.1h145.464c5.578 0 10.1 4.522 10.1 10.1v145.465c.001 5.578-4.521 10.1-10.099 10.1z" fill="#865240"/><path d="m256 348.932v145.466c0 5.575-4.525 10.1-10.1 10.1h-28.443c5.586 0 10.1-4.525 10.1-10.1v-145.466c0-5.575-4.515-10.1-10.1-10.1h28.443c5.575 0 10.1 4.525 10.1 10.1z" fill="#7b4b39"/><g><path d="m202.018 465.668h-57.704c-8.367 0-15.151-6.783-15.151-15.151v-57.704c0-8.367 6.783-15.151 15.151-15.151h57.704c8.367 0 15.151 6.783 15.151 15.151v57.704c0 8.368-6.783 15.151-15.151 15.151z" fill="#ba7c65"/><path d="m217.174 392.808v57.714c0 8.363-6.788 15.151-15.151 15.151h-31.746c8.373 0 15.151-6.788 15.151-15.151v-57.714c0-8.363-6.777-15.151-15.151-15.151h31.746c8.363.001 15.151 6.788 15.151 15.151z" fill="#a96a53"/></g></g></g><g><g><path d="m411.564 173.165h-145.465c-5.578 0-10.1-4.522-10.1-10.1v-145.465c0-5.578 4.522-10.1 10.1-10.1h145.464c5.578 0 10.1 4.522 10.1 10.1v145.464c.001 5.579-4.521 10.101-10.099 10.101z" fill="#a96a53"/><path d="m421.665 17.599v145.466c0 5.575-4.525 10.1-10.1 10.1h-28.443c5.586 0 10.1-4.525 10.1-10.1v-145.466c0-5.575-4.515-10.1-10.1-10.1h28.443c5.575 0 10.1 4.525 10.1 10.1z" fill="#925b46"/><g><path d="m367.684 134.335h-57.704c-8.367 0-15.151-6.783-15.151-15.151v-57.703c0-8.367 6.783-15.151 15.151-15.151h57.704c8.367 0 15.151 6.783 15.151 15.151v57.704c-.001 8.367-6.784 15.15-15.151 15.15z" fill="#c58d7c"/><path d="m382.839 61.476v57.714c0 8.363-6.788 15.151-15.151 15.151h-31.746c8.373 0 15.151-6.788 15.151-15.151v-57.714c0-8.363-6.777-15.151-15.151-15.151h31.746c8.364 0 15.151 6.787 15.151 15.151z" fill="#ba7c65"/></g></g><g><path d="m411.564 338.832h-145.465c-5.578 0-10.1-4.522-10.1-10.1v-145.465c0-5.578 4.522-10.1 10.1-10.1h145.464c5.578 0 10.1 4.522 10.1 10.1v145.464c.001 5.579-4.521 10.101-10.099 10.101z" fill="#865240"/><path d="m421.665 183.266v145.466c0 5.575-4.525 10.1-10.1 10.1h-28.443c5.586 0 10.1-4.525 10.1-10.1v-145.466c0-5.575-4.515-10.1-10.1-10.1h28.443c5.575-.001 10.1 4.524 10.1 10.1z" fill="#7b4b39"/><g><path d="m367.684 300.002h-57.704c-8.367 0-15.151-6.783-15.151-15.151v-57.704c0-8.367 6.783-15.151 15.151-15.151h57.704c8.367 0 15.151 6.783 15.151 15.151v57.704c-.001 8.368-6.784 15.151-15.151 15.151z" fill="#ba7c65"/><path d="m382.839 227.142v57.714c0 8.363-6.788 15.151-15.151 15.151h-31.746c8.373 0 15.151-6.788 15.151-15.151v-57.714c0-8.363-6.777-15.151-15.151-15.151h31.746c8.364 0 15.151 6.788 15.151 15.151z" fill="#a96a53"/></g></g><g><path d="m411.564 504.498h-145.465c-5.578 0-10.1-4.522-10.1-10.1v-145.465c0-5.578 4.522-10.1 10.1-10.1h145.464c5.578 0 10.1 4.522 10.1 10.1v145.465c.001 5.578-4.521 10.1-10.099 10.1z" fill="#a96a53"/><path d="m421.665 348.932v145.466c0 5.575-4.525 10.1-10.1 10.1h-28.443c5.586 0 10.1-4.525 10.1-10.1v-145.466c0-5.575-4.515-10.1-10.1-10.1h28.443c5.575 0 10.1 4.525 10.1 10.1z" fill="#925b46"/><g><path d="m367.684 465.668h-57.704c-8.367 0-15.151-6.783-15.151-15.151v-57.704c0-8.367 6.783-15.151 15.151-15.151h57.704c8.367 0 15.151 6.783 15.151 15.151v57.704c-.001 8.368-6.784 15.151-15.151 15.151z" fill="#c58d7c"/><path d="m382.839 392.808v57.714c0 8.363-6.788 15.151-15.151 15.151h-31.746c8.373 0 15.151-6.788 15.151-15.151v-57.714c0-8.363-6.777-15.151-15.151-15.151h31.746c8.364.001 15.151 6.788 15.151 15.151z" fill="#ba7c65"/><path d="m421.665 74.764c4.143 0 7.5-3.357 7.5-7.5v-49.663c0-9.705-7.896-17.601-17.601-17.601h-145.465c-3.759 0-7.238 1.194-10.1 3.209-2.862-2.015-6.342-3.209-10.101-3.209h-145.464c-9.705 0-17.601 7.896-17.601 17.601v145.464c0 3.759 1.195 7.239 3.21 10.101-2.015 2.862-3.21 6.342-3.21 10.101v145.465c0 3.759 1.195 7.239 3.21 10.101-2.015 2.862-3.21 6.342-3.21 10.1v145.465c0 9.705 7.896 17.601 17.601 17.601h145.464c3.759 0 7.238-1.194 10.101-3.209 2.862 2.015 6.341 3.209 10.1 3.209h145.465c9.705 0 17.601-7.896 17.601-17.601v-145.465c0-3.759-1.195-7.238-3.21-10.1 2.015-2.862 3.21-6.342 3.21-10.101v-145.465c0-3.759-1.195-7.239-3.21-10.101 2.015-2.862 3.21-6.342 3.21-10.1v-62.812c0-4.143-3.357-7.5-7.5-7.5s-7.5 3.357-7.5 7.5v54.805l-26.066-26.065c1.433-2.969 2.236-6.297 2.236-9.809v-57.705c0-3.512-.803-6.839-2.236-9.809l26.066-26.065v41.657c0 4.143 3.357 7.501 7.5 7.501zm-46.331-13.284v57.704c0 4.219-3.432 7.65-7.65 7.65h-57.704c-4.219 0-7.651-3.432-7.651-7.65v-57.704c0-4.219 3.433-7.65 7.651-7.65h57.704c4.219 0 7.65 3.432 7.65 7.65zm-85.769 67.513-26.066 26.065v-129.452l26.066 26.065c-1.433 2.969-2.236 6.297-2.236 9.809v57.704c0 3.512.803 6.84 2.236 9.809zm-26.066 357.399v-48.266c0-4.143-3.357-7.5-7.5-7.5s-7.5 3.357-7.5 7.5v48.265l-26.066-26.065c1.432-2.969 2.236-6.297 2.236-9.808v-57.704c0-3.511-.803-6.839-2.236-9.808l26.066-26.065v48.196c0 4.143 3.358 7.5 7.5 7.5s7.5-3.357 7.5-7.5v-48.197l26.066 26.065c-1.433 2.969-2.236 6.297-2.236 9.809v57.704c0 3.512.803 6.839 2.236 9.809zm150.666-295.119v129.451l-26.065-26.065c1.432-2.969 2.235-6.296 2.235-9.808v-57.705c0-3.511-.803-6.838-2.235-9.808zm-191.732 26.066 26.066-26.066v129.452l-26.066-26.066c1.432-2.969 2.236-6.297 2.236-9.808v-57.703c0-3.512-.803-6.84-2.236-9.809zm-10.606-10.607c-2.969-1.432-6.297-2.236-9.808-2.236h-10.479c-4.142 0-7.5 3.357-7.5 7.5s3.358 7.5 7.5 7.5h10.479c4.218 0 7.65 3.433 7.65 7.651v57.703c0 4.219-3.432 7.651-7.65 7.651h-57.704c-4.219 0-7.651-3.433-7.651-7.651v-57.703c0-4.219 3.432-7.651 7.651-7.651h14.235c4.142 0 7.5-3.357 7.5-7.5s-3.358-7.5-7.5-7.5h-14.235c-3.512 0-6.839.803-9.809 2.236l-26.065-26.066h129.452zm-87.928 10.607c-1.432 2.969-2.236 6.297-2.236 9.808v57.703c0 3.512.803 6.839 2.236 9.808l-26.066 26.066v-129.451zm10.607 87.927c2.969 1.432 6.297 2.236 9.809 2.236h57.704c3.511 0 6.839-.803 9.808-2.236l26.066 26.067h-129.454zm165.666 0c2.969 1.432 6.297 2.236 9.808 2.236h57.704c3.511 0 6.838-.803 9.808-2.235l26.066 26.066h-129.453zm75.162-78.12v57.705c0 4.219-3.432 7.65-7.65 7.65h-57.704c-4.219 0-7.651-3.432-7.651-7.65v-57.705c0-4.219 3.433-7.65 7.651-7.65h57.704c4.219 0 7.65 3.432 7.65 7.65zm-85.77 67.513-26.066 26.066v-129.452l26.066 26.066c-1.432 2.969-2.235 6.296-2.235 9.807v57.705c0 3.512.803 6.839 2.235 9.808zm-41.065-139.601-26.066-26.065c1.432-2.969 2.236-6.297 2.236-9.808v-57.705c0-3.511-.803-6.839-2.236-9.808l26.066-26.065zm-38.83-93.578v57.704c0 4.219-3.432 7.65-7.65 7.65h-57.704c-4.219 0-7.651-3.432-7.651-7.65v-57.704c0-4.219 3.432-7.65 7.651-7.65h57.704c4.218 0 7.65 3.432 7.65 7.65zm-75.163 78.119c2.969 1.432 6.297 2.235 9.808 2.235h57.704c3.511 0 6.838-.803 9.808-2.235l26.067 26.066h-129.453zm103.386 206.734-26.066 26.065c-2.969-1.432-6.296-2.235-9.808-2.235h-57.704c-3.511 0-6.839.803-9.808 2.235l-26.066-26.066h129.452zm-101.228 104.185v-57.704c0-4.219 3.432-7.65 7.651-7.65h57.704c4.218 0 7.65 3.432 7.65 7.65v57.704c0 4.219-3.432 7.65-7.65 7.65h-57.704c-4.219 0-7.651-3.432-7.651-7.65zm165.665 0v-57.704c0-4.219 3.433-7.65 7.651-7.65h57.704c4.219 0 7.65 3.432 7.65 7.65v57.704c0 4.219-3.432 7.65-7.65 7.65h-57.704c-4.219 0-7.651-3.432-7.651-7.65zm75.163-78.12c-2.969-1.432-6.296-2.235-9.808-2.235h-57.704c-3.512 0-6.839.803-9.808 2.236l-26.066-26.066h129.453zm0-165.667c-2.969-1.432-6.296-2.235-9.808-2.235h-57.704c-3.512 0-6.839.803-9.808 2.236l-26.066-26.066h129.451zm-165.666-165.666c-2.969-1.432-6.296-2.235-9.808-2.235h-57.704c-3.511 0-6.839.803-9.808 2.235l-26.066-26.065h129.452zm-87.927 10.607c-1.432 2.969-2.236 6.297-2.236 9.808v57.704c0 3.511.803 6.839 2.236 9.808l-26.066 26.065v-129.45zm-26.066 305.268 26.066 26.065c-1.432 2.969-2.236 6.297-2.236 9.808v57.704c0 3.511.803 6.839 2.236 9.808l-26.066 26.065zm36.673 113.992c2.969 1.432 6.297 2.235 9.808 2.235h57.704c3.511 0 6.838-.803 9.808-2.235l26.066 26.065h-129.452zm165.666 0c2.969 1.432 6.297 2.236 9.808 2.236h57.704c3.511 0 6.838-.803 9.808-2.235l26.066 26.065h-129.453zm87.927-10.606c1.433-2.969 2.236-6.297 2.236-9.809v-57.704c0-3.512-.803-6.839-2.236-9.809l26.066-26.065v129.453zm-113.995-294.66 26.067-26.067c2.969 1.432 6.297 2.236 9.808 2.236h57.704c3.511 0 6.838-.803 9.808-2.235l26.067 26.066zm93.58-126.836h-57.704c-3.512 0-6.839.803-9.808 2.236l-26.067-26.066h129.453l-26.066 26.065c-2.97-1.432-6.297-2.235-9.808-2.235z"/></g></g></g></g></svg>