<svg id="Capa_1" enable-background="new 0 0 512 512" height="512" viewBox="0 0 512 512" width="512" xmlns="http://www.w3.org/2000/svg"><g><g><g clip-rule="evenodd" fill-rule="evenodd"><path d="m106.001 67.499v407c0-16.568 13.431-30 30-30s30 13.431 30 30v-407c0-16.568-13.431-30-30-30s-30 13.432-30 30z" fill="#eca882"/><path d="m166 67.499v407c0-16.568 13.431-30 30-30v-407c-16.568.001-30 13.432-30 30z" fill="#eca882"/><path d="m196 37.5v407c0-16.568 13.431-30 30-30s30 13.431 30 30v-407c0-16.569-13.431-30-30-30s-30 13.431-30 30z" fill="#eca882"/><path d="m256 37.5v407c0-16.568 13.431-30 30-30 16.568 0 30 13.431 30 30v-407c0-16.569-13.431-30-30-30-16.568 0-30 13.431-30 30z" fill="#eca882"/><path d="m316 37.5v407c16.569 0 30 13.431 30 30v-407c0-16.569-13.432-30-30-30z" fill="#eca882"/><path d="m346 67.499v407c0-16.568 13.431-30 30-30s30 13.431 30 30v-407c0-16.568-13.431-30-30-30s-30 13.432-30 30z" fill="#eca882"/><path d="m375.999 444.5c-16.569 0-30 13.431-30 30 0-16.568-13.431-30-30-30 0 16.569-13.431 30-30 30 0 16.568 13.431 30 30 30h60c16.569 0 30-13.431 30-30s-13.431-30-30-30z" fill="#e68f5e"/><path d="m286 474.5c16.569 0 30-13.431 30-30 0-16.568-13.431-30-30-30s-30 13.431-30 30c0-16.568-13.431-30-30-30s-30 13.431-30 30 13.431 30 30 30z" fill="#e68f5e"/><path d="m196 504.499c16.568 0 30-13.431 30-30-16.568 0-30-13.431-30-30-16.569 0-30 13.431-30 30 0-16.568-13.431-30-30-30s-30 13.431-30 30 13.431 30 30 30z" fill="#e68f5e"/><path d="m106.001 67.499v407c0-13.979 9.561-25.724 22.5-29.055v-377.945c0-12.59 7.756-23.366 18.75-27.817-3.474-1.407-7.271-2.183-11.25-2.183-16.569.001-30 13.432-30 30zm239.999 0v407c0-13.979 9.561-25.724 22.5-29.055v-377.945c0-12.59 7.757-23.366 18.75-27.817-3.474-1.407-7.271-2.183-11.25-2.183-16.569.001-30 13.432-30 30zm-90-29.999v407c0-13.979 9.561-25.724 22.5-29.054v-377.946c0-12.59 7.757-23.366 18.75-27.817-3.475-1.407-7.271-2.183-11.25-2.183-16.568 0-30 13.431-30 30zm-60 0v407c0-13.979 9.561-25.724 22.5-29.055v-377.945c0-12.59 7.756-23.366 18.75-27.817-3.474-1.407-7.271-2.183-11.25-2.183-16.568 0-30 13.431-30 30z" fill="#e68f5e"/></g><g><path d="m293.5 82.5h-15v-15h15zm0-30h-15v-15h15z" fill="#fff"/></g></g><g><path d="m398.499 392h15v15h-15z"/><path d="m375.999 30c-12.253 0-23.152 5.909-29.999 15.026-5.538-7.373-13.729-12.638-23.14-14.386-3.234-17.412-18.526-30.64-36.86-30.64-12.253 0-23.152 5.907-30 15.023-6.847-9.116-17.746-15.023-30-15.023-18.334 0-33.626 13.228-36.86 30.64-9.412 1.748-17.602 7.013-23.14 14.386-6.847-9.118-17.746-15.026-30-15.026-20.678 0-37.5 16.822-37.5 37.5v407c0 20.678 16.822 37.5 37.5 37.5h60c18.109 0 33.261-12.904 36.745-30h46.509c3.484 17.096 18.636 30 36.745 30h59.999c20.678 0 37.5-16.822 37.5-37.5v-52.5h-15v22.52c-6.272-4.719-14.064-7.52-22.5-7.52-8.435 0-16.228 2.8-22.499 7.518v-377.018c0-12.407 10.093-22.5 22.499-22.5s22.5 10.093 22.5 22.5v309.5h15v-309.5c.001-20.678-16.821-37.5-37.499-37.5zm-89.999 437h-60c-12.406 0-22.5-10.093-22.5-22.5s10.094-22.5 22.5-22.5 22.5 10.093 22.5 22.5h15c0-12.407 10.094-22.5 22.5-22.5s22.5 10.093 22.5 22.5-10.094 22.5-22.5 22.5zm0-452c12.406 0 22.5 10.093 22.5 22.5v377.02c-6.272-4.719-14.064-7.52-22.5-7.52-8.435 0-16.228 2.8-22.5 7.519v-377.019c0-12.407 10.094-22.5 22.5-22.5zm-97.5 31.29v21.209h15v-29.999c0-12.407 10.094-22.5 22.5-22.5s22.5 10.093 22.5 22.5v377.018c-6.272-4.718-14.064-7.518-22.5-7.518s-16.228 2.801-22.5 7.52v-332.021h-15v355.269c-5.537 1.129-10.639 3.469-15 6.75v-377.018c0-9.778 6.271-18.114 15-21.21zm-52.5-1.29c12.407 0 22.5 10.093 22.5 22.5v377.019c-6.271-4.719-14.064-7.519-22.5-7.519s-16.228 2.801-22.5 7.52v-377.02c0-12.407 10.094-22.5 22.5-22.5zm60 452h-60c-12.407 0-22.5-10.093-22.5-22.5s10.094-22.5 22.5-22.5 22.5 10.093 22.5 22.5h15c0-10.138 6.741-18.728 15.976-21.532 3.219 13.888 14.168 24.837 28.056 28.056-2.803 9.234-11.394 15.976-21.532 15.976zm179.999-45c12.406 0 22.5 10.093 22.5 22.5s-10.094 22.5-22.5 22.5h-59.999c-10.138 0-18.728-6.741-21.532-15.976 13.888-3.219 24.837-14.169 28.056-28.056 9.234 2.804 15.976 11.394 15.976 21.532h15c0-12.407 10.093-22.5 22.499-22.5zm-37.499-7.482c-4.361-3.281-9.463-5.621-15-6.75v-391.478c8.729 3.096 15 11.432 15 21.21z"/></g></g></svg>