<svg id="Capa_1" enable-background="new 0 0 512 512" height="512" viewBox="0 0 512 512" width="512" xmlns="http://www.w3.org/2000/svg"><g><g><g><path d="m188.5 98.5v218.802h-45v-218.802c0-4.418 3.582-8 8-8h29c4.418 0 8 3.582 8 8z" fill="#ffe07d"/><path d="m278.5 98.5v233.802h-45v-233.802c0-4.418 3.582-8 8-8h29c4.418 0 8 3.582 8 8z" fill="#ffe07d"/><path d="m233.5 15.5v368.802h-45v-368.802c0-4.418 3.582-8 8-8h29c4.418 0 8 3.582 8 8z" fill="#ffd064"/><path d="m368.5 98.5v218.802h-45v-218.802c0-4.418 3.582-8 8-8h29c4.418 0 8 3.582 8 8z" fill="#ffe07d"/><path d="m323.5 15.5v368.802h-45v-368.802c0-4.418 3.582-8 8-8h29c4.418 0 8 3.582 8 8z" fill="#ffd064"/></g><path d="m368.5 180.5v24.302c0 62.132-50.368 112.5-112.5 112.5-62.132 0-112.5-50.368-112.5-112.5v-24.302h-42.5c-5.523 0-10 4.477-10 10v284c0 16.569 13.431 30 30 30h270c16.569 0 30-13.431 30-30v-284c0-5.523-4.477-10-10-10z" fill="#e17f85"/><g><path d="m411 180.5h-30c5.523 0 10 4.477 10 10v284c0 16.568-13.431 30-30 30h30c16.569 0 30-13.432 30-30v-284c0-5.523-4.477-10-10-10z" fill="#de646e"/></g><circle cx="256" cy="410.901" fill="#ffe07d" r="49.5"/><path d="m256 361.401c-5.23 0-10.268.817-15 2.32 20.004 6.354 34.5 25.072 34.5 47.18s-14.496 40.825-34.5 47.18c4.732 1.503 9.77 2.32 15 2.32 27.338 0 49.5-22.162 49.5-49.5 0-27.339-22.162-49.5-49.5-49.5z" fill="#ffd064"/></g><path d="m411 173h-35v-74.5c0-8.547-6.953-15.5-15.5-15.5h-29c-.169 0-.333.02-.5.025v-67.525c0-8.547-6.953-15.5-15.5-15.5h-29c-8.547 0-15.5 6.953-15.5 15.5v67.525c-.167-.005-.331-.025-.5-.025h-29c-.169 0-.333.02-.5.025v-67.525c0-8.547-6.953-15.5-15.5-15.5h-29c-8.547 0-15.5 6.953-15.5 15.5v67.525c-.167-.005-.331-.025-.5-.025h-29c-8.547 0-15.5 6.953-15.5 15.5v74.5h-35c-9.649 0-17.5 7.851-17.5 17.5v284c0 20.678 16.822 37.5 37.5 37.5h270c20.678 0 37.5-16.822 37.5-37.5v-284c0-9.649-7.851-17.5-17.5-17.5zm-80-74.5c0-.275.224-.5.5-.5h29c.276 0 .5.225.5.5v106.302c0 28.543-11.454 54.458-30 73.404zm-90 0c0-.275.224-.5.5-.5h29c.276 0 .5.225.5.5v81.47c0 4.143 3.358 7.5 7.5 7.5s7.5-3.357 7.5-7.5v-164.47c0-.275.224-.5.5-.5h29c.276 0 .5.225.5.5v275.419c-9.063 6.333-19.167 11.273-30 14.508v-90.457c0-4.143-3.358-7.5-7.5-7.5s-7.5 3.357-7.5 7.5v93.756c-4.901.704-9.907 1.076-15 1.076s-10.099-.372-15-1.076zm-45-83c0-.275.224-.5.5-.5h29c.276 0 .5.225.5.5v289.928c-10.833-3.235-20.937-8.175-30-14.508zm-45 83c0-.275.224-.5.5-.5h29c.276 0 .5.225.5.5v179.706c-18.546-18.945-30-44.86-30-73.404zm262.5 376c0 12.406-10.093 22.5-22.5 22.5h-270c-12.407 0-22.5-10.094-22.5-22.5v-284c0-1.379 1.122-2.5 2.5-2.5h35v16.802c-.303 66.125 55.542 120 120 120 64.528 0 120.176-53.747 120-120v-16.802h35c1.378 0 2.5 1.121 2.5 2.5zm-157.5-120.6c-24.095 0-45.69 15.251-53.737 37.951-1.384 3.904.659 8.19 4.563 9.575 3.903 1.38 8.19-.659 9.575-4.563 5.929-16.725 21.843-27.963 39.599-27.963 23.159 0 42 18.841 42 42s-18.841 42-42 42c-17.309 0-32.631-10.388-39.035-26.464-1.532-3.847-5.895-5.725-9.743-4.192s-5.725 5.896-4.192 9.743c8.69 21.816 29.482 35.913 52.97 35.913 31.43 0 57-25.57 57-57s-25.57-57-57-57z"/></g></svg>