<svg id="Capa_1" enable-background="new 0 0 512 512" height="512" viewBox="0 0 512 512" width="512" xmlns="http://www.w3.org/2000/svg"><g><g><path clip-rule="evenodd" d="m190.057 256 48.825 59.999v52.648l-48.179-23.613-51.933-102.995-30.22-9.961-40.181 20.261-9.961 30.22 55.275 109.623 125.199 39.17v50.648l22.5 22.5h30l22.5-22.5 15-226 125.306-125.306v-31.82l-31.82-31.819h-31.82l-82.88 105.379-27.611-4.354 7.5-138.08-22.5-22.5h-67.5l-22.5 22.5z" fill="#eca882" fill-rule="evenodd"/><path clip-rule="evenodd" d="m190.057 256 48.825 59.999v75.147h22.5v-90.147l-48.825-59.999-14.2-198.954 29.2-34.546h-30l-22.5 22.5zm-97.729-15.742-23.959 12.081-9.96 30.221 55.275 109.623 26.918 8.422-58.235-119.126zm146.554 183.249v58.493l22.5 22.5h30l-30-30v-43.985zm174.251-356.452h-22.585l-88.092 112.12 20.017 3.157z" fill="#e68f5e" fill-rule="evenodd"/><g><path d="m418.516 131.91-10.606-10.607 10.606-10.606 10.606 10.607zm-160.959-49.41h-15v-15h15zm0-30h-15v-15h15z" fill="#fff"/></g></g><g><path d="m306.585 478.69-18.31 18.31h-23.787l-18.106-18.106v-53.053l-127.431-39.869-31.987-63.438h27.582v-15h-35.145l-12.897-25.577 8.015-24.32 34.634-17.463 24.319 8.014 45.05 89.345h-27.316v15h37.758l42.418 20.79v17.823h15v-77.813l-40.552-49.833h43.062v-15h-51.816l-.996-15h30.312v-15h-31.307l-6.075-91.521h40.507v-15h-41.502l-2.116-31.867-14.966.994 11.799 177.775 48.65 59.784v37.953l-35.116-17.211-52.198-103.519-36.121-11.906-45.729 23.059-11.905 36.121 58.102 115.23 122.967 38.472v48.242l26.893 26.894h36.213l26.691-26.69 1.826-27.527-14.967-.992z"/><path d="m425.474 59.555h-38.57l-82.412 104.786-16.579-2.614 7.315-134.664-27.065-27.063h-73.712l-27.103 27.103 2.591 39.037 14.967-.994-2.14-32.249 17.898-17.897h61.286l17.936 17.937-6.867 126.44-22.294-3.516-2.337 14.817 62.456 9.85 41.309-52.522 18.495 22.728 11.635-9.468-20.625-25.346 32.533-41.365h25.07l27.427 27.425v25.608l-68.559 68.558-19.167-23.554-11.635 9.467 20.14 24.749-38.012 38.013-19.169-23.555-11.635 9.468 22.552 27.713-5.622 84.695h-21.816v15h20.821l-.996 14.999h-34.825v15h33.83l-1.576 23.748 14.966.994 10.194-153.573 125.509-125.509v-38.033z"/><path d="m309.512 427.337h15.001v15h-15.001z" transform="matrix(.066 -.998 .998 .066 -137.841 722.391)"/></g></g></svg>