<svg id="Capa_1" enable-background="new 0 0 512 512" height="512" viewBox="0 0 512 512" width="512" xmlns="http://www.w3.org/2000/svg"><g><g><g clip-rule="evenodd" fill-rule="evenodd"><path d="m281.846 181.001h-240c-8.249 0-15 6.75-15 15s6.752 15 15 15h240c8.247 0 15-6.75 15-15-.001-8.25-6.75-15-15-15z" fill="#eca882"/><path d="m281.846 211.001h-240v37.499l-15 30h269.999l-14.999-30z" fill="#8ad8f6"/><path d="m296.845 278.5h-269.999l22.5 211 15 15h195l15-15zm-198.254 123.94 31.627-18.26v-36.52l31.627-18.26 31.627 18.26v36.52l31.627 18.26v36.52l-31.627 18.26-31.627-18.26-31.627 18.26-31.627-18.26z" fill="#faef94"/><path d="m161.846 402.44-31.628-18.26-31.627 18.26v36.521l31.627 18.259 31.628-18.259z" fill="#eca882"/><path d="m130.218 384.18 31.628 18.26 31.627-18.26v-36.52l-31.627-18.26-31.628 18.26z" fill="#eca882"/><path d="m193.473 384.18-31.627 18.26v36.521l31.627 18.259 31.627-18.259v-36.521z" fill="#eca882"/><path d="m387.845 187.5v302c0 8.249 6.75 15 15 15s15-6.752 15-15v-302z" fill="#eca882"/><path d="m387.845 37.5h30v-15c0-8.247-6.75-15-15-15s-15 6.75-15 15z" fill="#eca882"/><path d="m365.345 37.5c-8.245 0-15 6.75-15 15s6.752 15 15 15h-15c-8.246 0-15 6.75-15 15s6.752 15 15 15h-15c-8.247 0-15 6.75-15 15s6.752 15 15 15h15c-8.248 0-15 6.75-15 15s6.753 15 15 15h15c-8.248 0-15 6.75-15 15s6.755 15 15 15h75.001c8.246 0 15-6.75 15-15s-6.752-15-15-15h15c8.247 0 15-6.75 15-15s-6.752-15-15-15h15c8.247 0 15-6.75 15-15s-6.751-15-15-15h-15c8.247 0 15-6.75 15-15s-6.752-15-15-15h-15c8.247 0 15-6.75 15-15s-6.754-15-15-15z" fill="#faef94"/><path d="m64.345 181.001h-22.5c-8.249 0-15 6.75-15 15s6.752 15 15 15h22.5c-8.248 0-15-6.75-15-15 .001-8.25 6.752-15 15-15z" fill="#e68f5e"/><path d="m64.345 211.001h-22.499v37.499l-15 30h22.5l14.999-30z" fill="#3ca6e5"/><path d="m49.346 278.5h-22.5l22.5 211 14.999 15h30l-22.5-22.5z" fill="#f6e23e"/><path d="m387.845 187.5v22.5h30v-22.5zm0 279.5v22.5c0 8.249 6.75 15 15 15s15-6.752 15-15v-22.5c0 8.248-6.75 15-15 15s-15-6.751-15-15z" fill="#e68f5e"/><path d="m365.345 37.5c-8.245 0-15 6.75-15 15s6.752 15 15 15h-15c-8.246 0-15 6.75-15 15s6.752 15 15 15h-15c-8.247 0-15 6.75-15 15s6.752 15 15 15h15c-8.248 0-15 6.75-15 15s6.753 15 15 15h15c-8.248 0-15 6.75-15 15s6.755 15 15 15h22.5c-8.245 0-15-6.75-15-15s6.752-15 15-15h-15c-8.246 0-15-6.75-15-15s6.752-15 15-15h-15c-8.248 0-15-6.75-15-15s6.752-15 15-15h15c-8.248 0-15-6.75-15-15s6.754-15 15-15h15c-8.248 0-15-6.75-15-15s6.755-15 15-15z" fill="#f6e23e"/></g><g><path d="m266.846 316h-15v-15h15zm-30.001 0h-15v-15h15zm22.501-67.5h-15v-15h15zm-30.001 0h-15v-15h15z" fill="#fff"/></g></g><g><path d="m289.345 217.21c8.729-3.096 15-11.432 15-21.21 0-12.407-10.093-22.5-22.5-22.5h-240c-12.407 0-22.5 10.093-22.5 22.5 0 9.778 6.271 18.114 15 21.21v29.519l-15.19 30.381 3.436 32.22 14.916-1.591-2.319-21.739h253.315l-21.334 200.07-10.929 10.93h-188.788l-10.93-10.93-17.425-163.415-14.916 1.591 17.988 168.684 19.07 19.07h201.213l19.07-19.07 23.014-215.819-15.191-30.381zm-242.864 38.79h47.865v-15h-45v-22.5h225v31.77l10.364 20.73h-245.729zm-4.635-67.5h240c4.135 0 7.5 3.365 7.5 7.5s-3.365 7.5-7.5 7.5h-240c-4.135 0-7.5-3.365-7.5-7.5s3.365-7.5 7.5-7.5z"/><path d="m161.845 320.74-39.127 22.59v36.521l-31.627 18.26v45.18l39.127 22.59 31.627-18.26 31.627 18.26 39.127-22.59v-45.18l-31.627-18.26v-36.521zm-24.126 31.25 24.127-13.93 24.127 13.93v27.86l-24.127 13.93-24.127-13.93zm-31.628 82.64v-27.86l24.128-13.93 24.127 13.93v27.86l-24.127 13.93zm111.509 0-24.127 13.93-24.127-13.93v-27.86l24.127-13.93 24.128 13.93v27.86z"/><path d="m492.845 112.5c0-10.362-7.042-19.105-16.59-21.707 1.022-2.568 1.59-5.364 1.59-8.292 0-10.362-7.042-19.105-16.59-21.707 1.022-2.568 1.59-5.364 1.59-8.293 0-12.407-10.093-22.5-22.5-22.5h-15v-7.5c0-12.407-10.093-22.5-22.5-22.5s-22.5 10.093-22.5 22.5v7.499h-15c-12.406 0-22.5 10.093-22.5 22.5 0 2.928.568 5.725 1.591 8.293-9.548 2.602-16.591 11.345-16.591 21.707 0 2.928.568 5.725 1.591 8.293-9.548 2.602-16.59 11.345-16.59 21.707s7.042 19.105 16.59 21.707c-1.022 2.568-1.591 5.365-1.591 8.293 0 10.361 7.042 19.104 16.591 21.707-1.022 2.568-1.591 5.365-1.591 8.293 0 12.406 10.093 22.5 22.5 22.5h15v294.5c0 12.407 10.093 22.5 22.5 22.5s22.5-10.093 22.5-22.5v-22.5h-15v22.5c0 4.135-3.365 7.5-7.5 7.5s-7.5-3.365-7.5-7.5v-294.5h15v227h15v-227h15c12.407 0 22.5-10.093 22.5-22.5 0-2.928-.568-5.725-1.591-8.293 9.548-2.602 16.59-11.345 16.59-21.707 0-2.928-.568-5.725-1.591-8.293 9.55-2.603 16.592-11.346 16.592-21.707zm-97.5-90c0-4.135 3.365-7.5 7.5-7.5s7.5 3.365 7.5 7.5v7.5h-15zm-30 22.5h75c4.136 0 7.5 3.364 7.5 7.5 0 4.135-3.364 7.5-7.5 7.5h-75c-4.135 0-7.5-3.365-7.5-7.5s3.365-7.5 7.5-7.5zm-15 30h105c4.135 0 7.5 3.365 7.5 7.5s-3.364 7.5-7.5 7.5h-105c-4.135 0-7.5-3.365-7.5-7.5s3.365-7.5 7.5-7.5zm90 105h-75c-4.135 0-7.5-3.364-7.5-7.5s3.364-7.5 7.5-7.5h75c4.136 0 7.5 3.364 7.5 7.5 0 4.135-3.364 7.5-7.5 7.5zm15-30h-105c-4.135 0-7.5-3.364-7.5-7.5s3.365-7.5 7.5-7.5h105c4.135 0 7.5 3.364 7.5 7.5s-3.364 7.5-7.5 7.5zm15-30h-135c-4.135 0-7.5-3.364-7.5-7.5s3.364-7.5 7.5-7.5h135c4.135 0 7.5 3.364 7.5 7.5s-3.365 7.5-7.5 7.5z"/><path d="m410.345 437h15v15h-15z"/></g></g></svg>