<svg id="Capa_1" enable-background="new 0 0 511.986 511.986" height="512" viewBox="0 0 511.986 511.986" width="512" xmlns="http://www.w3.org/2000/svg"><g><g><g clip-rule="evenodd" fill-rule="evenodd"><path d="m226.186 142.844c-19.652 0-30.772 20.557-52.304 20.557-21.533 0-32.652-20.557-52.305-20.557l23.208 150.856c5.59 36.34 30.082 66.85 66.85 66.85h46.138c-57.534-21.182-55.034-76.841-49.767-111.158 22.516 5.091 55.408 10.848 76.047 38.478 21.375-17.66 49.071-29.689 66.166-33.554 3.885 25.307-.165 78.045-24.107 106.233h19.225c36.768 0 61.26-30.515 66.85-66.85l23.208-150.855c-19.646.007-30.766 20.557-52.295 20.557-21.532 0-32.653-20.557-52.304-20.557-19.652 0-30.772 20.557-52.304 20.557-21.534.001-32.654-20.557-52.306-20.557z" fill="#eca882"/><path d="m284.053 287.87c-20.638-27.63-53.531-33.387-76.047-38.478-5.268 34.317-7.768 89.976 49.767 111.158-11.632-27.714 3.477-53.839 26.28-72.68z" fill="#6ad34d"/><path d="m257.773 360.549h68.338c23.943-28.188 27.992-80.926 24.107-106.233-42.401 9.588-114.57 54.098-92.445 106.233z" fill="#aae79a"/><path d="m257.773 360.549h68.338c5.46-6.428 9.882-14.135 13.415-22.5h-85.772c-.444 7.276.753 14.804 4.019 22.5z" fill="#6ad34d"/><path d="m173.882 163.402c21.532 0 32.652-20.557 52.304-20.557s30.772 20.557 52.305 20.557 32.653-20.557 52.304-20.557c19.652 0 30.772 20.557 52.304 20.557 21.529 0 32.649-20.551 52.295-20.557l10.216-66.408h-334.25l10.216 66.408c19.654-.001 30.773 20.557 52.306 20.557z" fill="#fff"/><path d="m52.486 360.549v30.001l14.999 15h422.001l15-15v-30.001z" fill="#fff5cc"/><path d="m450.985 405.55h-344.999l7.5 15.001c3.689 7.379 6.754 15 15 15h300c8.246 0 11.313-7.624 15-15z" fill="#ffc477"/><path d="m144.785 293.7-7.383-47.992c-33.616-20.374-112.703-55.249-91.068-95.744 14.656-27.431 51.491-20.158 75.243-7.119l-6.378-41.462c-36.729-11.917-80.303-5.056-100.056 31.914-8.668 16.224-9.794 34.669-4.3 52.117 16.575 52.639 89.149 73.584 133.942 108.286z" fill="#fff"/><path d="m144.785 293.7-7.383-47.992c-6.842-4.146-15.568-8.894-24.944-14.167l6.939 45.101c9.007 5.43 17.616 11.037 25.388 17.058zm-47.428-160.314c8.62 2.087 17.021 5.507 24.22 9.459l-6.378-41.462c-7.635-2.477-15.566-4.14-23.517-4.892z" fill="#b6e6fa"/><path d="m133.86 76.436h-22.5l10.216 66.408c9.198 0 16.528 4.504 23.93 9.295z" fill="#b6e6fa"/><path d="m52.486 360.549v30.001l14.999 15h30l-22.5-22.5v-22.501z" fill="#ffc477"/></g><g><path d="m398.945 232.247-14.826-2.281 2.281-14.826 14.826 2.281zm4.562-29.651-14.826-2.281 2.281-14.826 14.826 2.281z" fill="#fff"/></g><path clip-rule="evenodd" d="m145.507 152.139c-7.402-4.791-14.732-9.295-23.93-9.295l23.208 150.856c5.59 36.34 30.082 66.85 66.85 66.85h46.138c-14.939-5.5-25.823-13.328-33.669-22.5h-12.469c-26.32 0-41.264-24.288-44.877-47.779zm180.605 208.41h19.225c19.707 0 35.885-8.769 47.519-22.5h-53.329c-3.533 8.365-7.955 16.072-13.415 22.5z" fill="#e68f5e" fill-rule="evenodd"/></g><g><path d="m388.204 353.05c16.118-12.828 27.542-33.161 31.396-58.209l34.754-225.904h-351.735l3.417 22.215c-16.881-3.662-33.992-3.487-49.186.615-21.422 5.783-38.132 18.922-48.323 37.997-9.36 17.52-11.078 38.083-4.838 57.904 12.201 38.748 51.257 60.846 89.026 82.217 16.373 9.264 31.884 18.044 45.18 27.999 4.285 23.65 15.414 42.863 30.872 55.166h-123.781v40.606l19.393 19.394h36.972l5.427 10.854c.276.554.55 1.108.821 1.662 3.633 7.379 8.607 17.484 20.887 17.484h225v-15h-225c-2.538 0-4.009-2.163-7.429-9.109-.285-.581-.572-1.164-.863-1.745l-2.073-4.146h320.729l-2.073 4.146c-.291.582-.578 1.164-.863 1.745-3.419 6.946-4.89 9.109-7.429 9.109h-29.999v15h29.999c12.28 0 17.255-10.106 20.887-17.485.271-.553.545-1.108.821-1.661l5.427-10.854h36.972l19.394-19.394v-40.606zm-260.589-121.629c-1.377-.771-2.774-1.55-4.193-2.342-18.221-10.163-40.896-22.811-56.247-36.739-21.117-19.159-18.232-31.344-14.227-38.843 3.609-6.755 8.895-11.089 16.158-13.249 9.557-2.843 26.336-2.235 45.633 7.477zm-109.618-48.259c-5.02-15.942-3.685-32.396 3.761-46.331 17.392-32.553 55.29-38.285 86.75-29.615l3.519 22.873c-24.313-9.524-41.82-5.816-47.194-4.219-11.147 3.314-19.597 10.231-25.114 20.559-9.85 18.437-4.003 37.621 17.377 57.02 16.623 15.083 40.131 28.195 59.021 38.73 5.179 2.889 10.115 5.644 14.411 8.165l4.158 27.031c-11.046-7.227-22.949-13.963-34.582-20.545-35.241-19.94-71.681-40.559-82.107-73.668zm134.201 109.397-21.575-140.244c3.87 1.622 7.664 4.079 11.777 6.747 8.554 5.549 18.25 11.839 31.481 11.839 10.142 0 17.957-3.721 23.634-6.961l-7.438-13.026c-6.123 3.496-10.967 4.988-16.196 4.988-8.792 0-15.849-4.577-23.318-9.423-6.499-4.216-13.7-8.882-22.457-10.522l-8.003-52.021h316.766l-8.003 52.023c-8.753 1.642-15.951 6.306-22.448 10.52-7.47 4.846-14.526 9.423-23.318 9.423s-15.849-4.577-23.318-9.423c-8.046-5.219-17.165-11.135-28.986-11.135-11.82 0-20.939 5.916-28.985 11.135-7.47 4.846-14.525 9.423-23.318 9.423-8.792 0-15.849-4.577-23.318-9.423-8.046-5.219-17.165-11.135-28.986-11.135-9.616 0-17.315 3.894-23.579 7.703l7.793 12.816c4.714-2.867 9.89-5.52 15.786-5.52 7.382 0 13.611 4.041 20.823 8.719 8.555 5.549 18.25 11.839 31.481 11.839s22.928-6.29 31.481-11.839c7.212-4.679 13.44-8.719 20.822-8.719s13.611 4.041 20.823 8.719c8.555 5.549 18.25 11.839 31.481 11.839s22.927-6.29 31.481-11.839c4.11-2.666 7.901-5.122 11.768-6.744l-21.575 140.24c-4.632 30.109-24.807 60.49-59.437 60.49h-4.88c17.645-30.521 21.034-74.745 17.176-99.872l-1.221-7.952-7.847 1.774c-14.942 3.379-34.36 11.742-50.677 21.827-3.964 2.449-8.289 5.342-12.693 8.633-20.846-23.244-49.721-29.657-71.241-34.426-1.468-.325-2.9-.643-4.293-.958l-7.847-1.774-1.221 7.952c-2.491 16.23-5.043 40.49 1.529 63.687 4.813 16.987 13.774 30.731 26.742 41.109h-17.229c-34.629.002-54.805-30.38-59.437-60.489zm94.212 54.389c-34.252-20.27-35.82-57.971-32.092-88.466 19.633 4.4 42.708 10.37 59.309 28.547-8.046 7.422-15.531 16.205-20.671 26.234-5.702 11.131-7.875 22.406-6.546 33.685zm16.585 6.102c-3.461-11.041-2.366-21.864 3.312-32.945 13.357-26.066 50.844-47.864 77.407-56.243 1.8 26.294-4.025 66.439-21.215 89.188zm233.991 34.393-10.606 10.607h-415.788l-10.605-10.606v-19.394h437v19.393z"/><path d="m368.486 428.05h15v15h-15z"/></g></g></svg>