<svg id="Capa_1" enable-background="new 0 0 512 512" height="512" viewBox="0 0 512 512" width="512" xmlns="http://www.w3.org/2000/svg"><g><g><g clip-rule="evenodd" fill-rule="evenodd"><path d="m163.138 37.501v52.502h30.001v-67.503c0-8.248-6.75-15-15-15h-75.001v30.001z" fill="#fff"/><path d="m163.138 90.002h30v74.999h-30z" fill="#3ca6e5"/><path d="m163.138 165.001h30v309.499h-30z" fill="#e68f5e"/><path d="m258.43 276.099h59.635v59.635h-59.635zm21.828-81.462-51.645 29.817 29.817 51.645 51.645-29.817zm-117.12 279.863v-309.499h-54.573l24.573 339.499h182.5c-57.534-21.182-55.034-76.841-49.767-111.158 22.516 5.091 55.408 10.848 76.047 38.478 7.05-5.825 14.787-11.037 22.605-15.546l18.187-251.274h-72.635v29.635h-29.817-29.817v-29.635h-57.303v309.5z" fill="#eca882"/><path d="m193.138 90.002v74.999h57.303v-30h59.635v30h72.635l5.428-74.999zm-30 74.999v-74.999h-60.002l5.429 74.999z" fill="#8ad8f6"/><path d="m250.441 135.002h59.635v30h-59.635z" fill="#3ca6e5"/><path d="m250.441 165.001h59.635v29.635h-59.635z" fill="#e68f5e"/><path d="m239.527 205.551h59.635v59.635h-59.635z" fill="#e68f5e" transform="matrix(.866 -.5 .5 .866 -81.599 166.205)"/><path d="m258.43 276.099h59.635v59.635h-59.635z" fill="#e68f5e"/><path d="m341.918 431.821c-20.638-27.63-53.531-33.387-76.047-38.478-5.268 34.317-7.767 89.976 49.767 111.158-12.132-28.589 3.477-53.84 26.28-72.68z" fill="#6ad34d"/><path d="m341.918 431.821c-22.803 18.84-38.412 44.091-26.28 72.679h68.339c23.942-28.188 27.992-80.926 24.107-106.233-22.168 5.012-48.474 18.936-66.166 33.554z" fill="#aae79a"/><path d="m131.064 165.001h-22.499l24.573 339.499h22.5z" fill="#e68f5e"/><path d="m125.636 90.002h-22.5l5.429 74.999h22.499z" fill="#3ca6e5"/><path d="m163.138 67.503h30v22.5h-30z" fill="#b6e6fa"/><path d="m311.485 482c-.387 7.213.858 14.733 4.154 22.5h68.339c5.46-6.428 9.882-14.135 13.415-22.5z" fill="#6ad34d"/></g><g><path d="m354.89 234.138-14.961-1.082 1.083-14.961 14.961 1.082zm2.166-29.922-14.961-1.082 1.083-14.961 14.961 1.082z" fill="#fff"/></g></g><g><path d="m215.638 497h15v15h-15z"/><path d="m415.497 397.128-1.221-7.951-7.847 1.774c-9.916 2.242-21.804 6.681-33.448 12.359l23.221-320.809h-195.564v-60.001c0-12.406-10.094-22.5-22.5-22.5h-82.502v45.001h60.001v37.501h-60.563l2.754 38.061 14.961-1.082-1.59-21.979h44.438v59.999h-40.096l-1.669-23.06-14.961 1.082 27.251 376.477h74.477v-15h-60.523l-23.488-324.499h39.011v309.499h45.001v-309.499h42.303v29.636h9.327l-33.9 19.572 32.563 56.4v65.125h74.635v-74.634h-39.148l33.9-19.572-27.071-46.891h24.326v-29.636h57.073l-17.322 239.315c-.527.319-1.051.639-1.573.962-3.963 2.449-8.288 5.342-12.692 8.633-20.845-23.243-49.72-29.657-71.24-34.426-1.468-.325-2.901-.643-4.295-.958l-7.847-1.774-1.221 7.952c-2.491 16.229-5.043 40.489 1.529 63.688 4.813 16.986 13.774 30.73 26.742 41.108h-41.091v15h141.809l2.247-2.645c25.139-29.598 30.222-83.445 25.803-112.228zm-104.932-68.894h-44.635v-44.634h44.635zm-49.389-62.38-22.317-38.655 38.655-22.317 22.316 38.655zm-150.54-235.853v-15.001h67.502c4.136 0 7.5 3.364 7.5 7.5v60.002h-15.001v-52.501zm60.001 67.501h15.001v59.999h-15.001zm15.001 369.498h-15.001v-294.499h15.001zm116.937-279.863h-44.634v-14.636h44.634zm0-29.636h-44.634v-14.999h44.634zm15 0v-29.999h-74.634v29.999h-42.303v-59.999h179.438l-4.343 59.999zm-45.392 244.931c19.633 4.401 42.708 10.371 59.309 28.548-8.046 7.422-15.531 16.205-20.671 26.234-5.703 11.13-7.879 22.405-6.55 33.682-34.248-20.27-35.816-57.969-32.088-88.464zm108.153 94.568h-59.48c-3.461-11.041-2.362-21.863 3.316-32.945 8.876-17.321 39.993-45.18 77.481-56.353 3.055 36.177-9.379 72.93-21.317 89.298z"/></g></g></svg>