<svg id="Capa_1" enable-background="new 0 0 512 512" height="512" viewBox="0 0 512 512" width="512" xmlns="http://www.w3.org/2000/svg"><g><g><g clip-rule="evenodd" fill-rule="evenodd"><path d="m145.75 7.5h223.999v45h-223.999z" fill="#fff5cc"/><path d="m369.749 52.5h-227.498l-30 45h287.498z" fill="#8ad8f6"/><path d="m227.25 221.279c-23.671 0-35.895-20.558-57.5-20.558-21.604 0-33.829 20.558-57.499 20.558v179.998c23.671 0 35.896-20.557 57.5-20.557s33.828 20.557 57.499 20.557 35.896-20.557 57.5-20.557 33.829 20.557 57.5 20.557c23.672 0 35.896-20.557 57.5-20.557v-179.998c-21.604 0-33.828 20.558-57.5 20.558-23.671 0-35.896-20.558-57.5-20.558s-33.829 20.557-57.5 20.557zm-8.75 79.72c0-20.711 16.789-37.5 37.5-37.5s37.5 16.789 37.5 37.5-16.789 37.5-37.5 37.5c-20.711.001-37.5-16.789-37.5-37.5z" fill="#fff"/><path d="m169.75 380.72c-21.604 0-33.829 20.557-57.5 20.557v58.223h287.498v-78.78c-21.604 0-33.828 20.557-57.5 20.557-23.671 0-35.896-20.557-57.5-20.557s-33.828 20.557-57.5 20.557c-23.669 0-35.893-20.557-57.498-20.557zm229.999-283.22h-287.498v123.779c23.671 0 35.895-20.558 57.499-20.558s33.829 20.558 57.5 20.558c23.672 0 35.896-20.558 57.499-20.558 21.604 0 33.829 20.558 57.5 20.558 23.672 0 35.896-20.558 57.5-20.558z" fill="#8ad8f6"/><path d="m112.251 459.5h287.498v45h-287.498z" fill="#fff5cc"/><circle cx="256" cy="300.999" fill="#fff5cc" r="37.5"/><path d="m142.25 7.5h22.5v45h-22.5z" fill="#ffc477"/><path d="m172.25 52.5h-30l-29.999 45h29.999z" fill="#3ca6e5"/><path d="m112.251 401.277v58.223h22.5v-64.516c-6.643 3.514-13.798 6.293-22.5 6.293zm22.5-303.777h-22.5l.001 123.779c8.702 0 15.856-2.779 22.499-6.294z" fill="#3ca6e5"/><path d="m112.251 459.5h22.5v45h-22.5z" fill="#ffc477"/><path d="m267.25 336.781c-15.214-4.778-26.25-18.991-26.25-35.782s11.036-31.004 26.25-35.782c-23.924-7.516-48.75 10.301-48.75 35.782s24.825 43.299 48.75 35.782z" fill="#ffc477"/></g><g><path d="m377.25 165h-15v-15h15zm0-30h-15v-15h15z" fill="#fff"/></g><path clip-rule="evenodd" d="m134.751 394.985v-179.998c-6.643 3.514-13.798 6.292-22.5 6.292v179.998c8.702 0 15.857-2.779 22.5-6.292z" fill="#b6e6fa" fill-rule="evenodd"/></g><g><path d="m377.25 50.229v-50.229h-242.5v50.229l-30 45v32.271h15v-22.5h272.498v88.91c-9.028 1.643-16.459 6.013-23.689 10.279-8.358 4.932-16.252 9.59-26.311 9.59-10.058 0-17.953-4.658-26.311-9.59-9.138-5.392-18.586-10.967-31.189-10.967s-22.051 5.576-31.188 10.967c-8.358 4.932-16.252 9.59-26.311 9.59s-17.953-4.658-26.311-9.59c-9.137-5.392-18.586-10.968-31.189-10.968s-22.052 5.576-31.189 10.968c-6.169 3.64-12.089 7.125-18.81 8.704v-70.393h-15v369.5h219.998v-15h-204.997v-30h272.498v30h-22.5v15h37.5v-416.771zm-11.514 9.771 19.999 30h-259.47l19.999-30zm-3.486-45v30h-212.5v-30zm-216.066 202.108c8.081-4.769 15.059-8.886 23.566-8.886 8.508 0 15.486 4.118 23.567 8.886 9.271 5.471 19.779 11.672 33.933 11.672s24.662-6.201 33.934-11.672c8.08-4.768 15.058-8.886 23.565-8.886s15.486 4.118 23.567 8.886c9.271 5.471 19.78 11.672 33.933 11.672 14.154 0 24.663-6.201 33.934-11.672 5.592-3.3 10.657-6.286 16.066-7.813v164.614c-9.028 1.643-16.459 6.013-23.689 10.279-8.358 4.932-16.252 9.59-26.311 9.59-10.058 0-17.952-4.658-26.31-9.59-9.138-5.392-18.586-10.967-31.189-10.967s-22.052 5.576-31.189 10.967c-8.358 4.932-16.252 9.59-26.31 9.59s-17.952-4.658-26.31-9.59c-9.138-5.392-18.586-10.967-31.189-10.967s-22.052 5.576-31.189 10.967c-6.17 3.64-12.089 7.126-18.81 8.704v-164.708c10.498-1.678 18.876-6.618 26.431-11.076zm-26.433 234.892v-43.819c10.5-1.677 18.878-6.618 26.433-11.076 8.081-4.768 15.059-8.886 23.566-8.886 8.508 0 15.486 4.118 23.566 8.886 9.271 5.471 19.779 11.671 33.933 11.671 14.153 0 24.662-6.201 33.933-11.671 8.081-4.768 15.059-8.886 23.566-8.886s15.486 4.118 23.566 8.886c9.271 5.471 19.78 11.671 33.933 11.671 14.154 0 24.663-6.201 33.934-11.671 5.592-3.3 10.657-6.286 16.066-7.813v62.708z"/><path d="m339.749 497h15v15h-15z"/><path d="m256 346c24.813 0 45-20.187 45-45s-20.187-45-45-45-45 20.187-45 45 20.187 45 45 45zm0-75c16.542 0 30 13.458 30 30s-13.458 30-30 30-30-13.458-30-30 13.458-30 30-30z"/></g></g></svg>