<svg id="Capa_1" enable-background="new 0 0 512 512" height="512" viewBox="0 0 512 512" width="512" xmlns="http://www.w3.org/2000/svg"><g><g><g clip-rule="evenodd" fill-rule="evenodd"><path d="m91.255 112.468 308.278 308.278c-38.391 33.476-88.59 53.754-143.533 53.754-120.684 0-218.5-97.816-218.5-218.5 0-54.943 20.278-105.142 53.755-143.532zm164.745-104.968c-137.243 0-248.5 111.257-248.5 248.5s111.257 248.5 248.5 248.5 248.5-111.257 248.5-248.5-111.257-248.5-248.5-248.5zm-143.532 83.755 308.278 308.278c33.475-38.392 53.754-88.59 53.754-143.533 0-120.684-97.816-218.5-218.5-218.5-54.943 0-105.141 20.279-143.532 53.755z" fill="#f05575"/><path d="m192.25 128.5v42.537l84.963 84.963h42.537v-127.5z" fill="#fff5cc"/><path d="m234.787 256-42.537-42.537v42.537z" fill="#ffc477"/><path d="m234.787 256h-106.287v127.5h127.5v-106.287z" fill="#fff5cc"/><path d="m234.787 256h-31.82l53.033 53.033v-31.82z" fill="#ffc477"/><path d="m256 277.213v106.287h106.287zm21.213-21.213h106.287v106.287z" fill="#fff5cc"/><path d="m256 277.213v106.287h22.5v-51.968l51.968 51.968h31.819zm21.213-21.213h31.819l74.467 74.467v31.819z" fill="#ffc477"/><path d="m319.75 128.5v127.5h63.75v106.287l37.246 37.246c33.475-38.392 53.754-88.59 53.754-143.533 0-120.684-97.816-218.5-218.5-218.5-54.943 0-105.141 20.279-143.532 53.755l79.782 79.782v-42.537zm-191.25 127.5v127.5h127.5 106.287l37.246 37.246c-38.391 33.476-88.59 53.754-143.533 53.754-120.684 0-218.5-97.816-218.5-218.5 0-54.943 20.278-105.142 53.755-143.532l100.995 100.995v42.537z" fill="#fff"/><path d="m383.5 330.467v31.819l37.246 37.246c33.475-38.391 53.754-88.589 53.754-143.532 0-120.684-97.816-218.5-218.5-218.5-54.943 0-105.141 20.279-143.532 53.755l79.782 79.782v-31.819l-45.784-45.784c32.222-21.768 70.159-33.434 109.534-33.434 108.264 0 196 87.736 196 196 0 39.375-11.666 77.312-33.434 109.534zm-290.067-184.001c-21.768 32.221-33.433 70.159-33.433 109.534 0 108.264 87.736 196 196 196 39.375 0 77.313-11.665 109.534-33.433l-35.067-35.067h31.819l37.246 37.246c-38.39 33.476-88.589 53.754-143.532 53.754-120.684 0-218.5-97.816-218.5-218.5 0-54.943 20.278-105.142 53.755-143.532l100.995 100.995v31.82z" fill="#b6e6fa"/><path d="m309.033 256-94.283-94.283v-33.217h-22.5v42.537l84.963 84.963z" fill="#ffc477"/><path d="m128.5 256h22.5v127.5h-22.5z" fill="#ffc477"/></g><g><path d="m297.251 166h-15v-15h15zm-30 0h-15v-15h15z" fill="#fff"/></g></g><g><path d="m437.02 74.98c-48.352-48.351-112.64-74.98-181.02-74.98-65.484 0-127.8 24.722-175.465 69.61l10.283 10.92c44.872-42.258 103.536-65.53 165.182-65.53 64.374 0 124.894 25.068 170.413 70.587s70.587 106.039 70.587 170.413-25.068 124.894-70.587 170.413-106.039 70.587-170.413 70.587-124.894-25.068-170.413-70.587-70.587-106.039-70.587-170.413c0-61.649 23.272-120.312 65.53-165.182l-10.92-10.284c-44.888 47.664-69.61 109.98-69.61 175.466 0 68.38 26.629 132.667 74.98 181.02 48.352 48.351 112.64 74.98 181.02 74.98s132.668-26.629 181.02-74.98c48.351-48.353 74.98-112.64 74.98-181.02s-26.629-132.667-74.98-181.02z"/><path d="m85.603 107.539c-35.857 41.118-55.603 93.842-55.603 148.461 0 60.371 23.507 117.126 66.19 159.81 42.684 42.683 99.439 66.19 159.81 66.19 54.619 0 107.344-19.746 148.462-55.602l6.052-5.278-319.634-319.634zm258.577 268.461h-80.68v-80.68zm-127.5-127.5h-16.93v-16.93zm-31.93-31.93v31.93h-63.75v142.5h48.75v-15h-33.75v-112.5h95.68l16.82 16.82v95.68h-33.749v15h144.429l29.262 29.262c-37.421 30.196-84.137 46.738-132.442 46.738-56.364 0-109.353-21.947-149.203-61.797-39.851-39.85-61.797-92.838-61.797-149.203 0-48.304 16.542-95.021 46.738-132.442z"/><path d="m426.398 404.461c35.856-41.12 55.602-93.845 55.602-148.461 0-60.371-23.507-117.126-66.19-159.81-42.684-42.683-99.439-66.19-159.81-66.19-54.615 0-107.34 19.746-148.461 55.602l-6.053 5.278 319.634 319.634zm-50.398-60.28-80.68-80.681h80.68zm-63.75-95.681h-31.93l-80.57-80.57v-31.93h112.5zm78.75 110.681v-110.681h-63.75v-127.5h-142.5v31.93l-61.191-61.192c37.422-30.196 84.139-46.738 132.441-46.738 56.364 0 109.353 21.947 149.203 61.797 39.851 39.85 61.797 92.838 61.797 149.203 0 48.302-16.542 95.019-46.739 132.441z"/><path d="m184.75 376h15v15h-15z"/></g></g></svg>