<svg id="Layer_1" enable-background="new 0 0 512 512" height="512" viewBox="0 0 512 512" width="512" xmlns="http://www.w3.org/2000/svg"><g><g><path clip-rule="evenodd" d="m180.872 55.006h-47.212v25.607c0 2.829 2.343 5.087 5.207 5.173l49.729 1.458c9.951-9.232 10.24-19.549-7.724-32.238z" fill="#e29d7b" fill-rule="evenodd"/></g><g><path clip-rule="evenodd" d="m504.5 55.006h-185.406c-8.389 12.546-3.848 24.464 7.001 36.353l173.198 5.144c2.864.086 5.207-2.315 5.207-5.144z" fill="#e29d7b" fill-rule="evenodd"/></g><g><path clip-rule="evenodd" d="m180.872 55.006c22.044 36.524-7.869 55.986-7.319 86.88-.434 23.635 16.981 40.582 15.303 63.588l21.638 18.526 23.144-18.526c1.649-23.006-15.766-39.954-15.303-63.588-.579-30.894 29.334-50.356 7.29-86.88z" fill="#ffd772" fill-rule="evenodd"/></g><g><path clip-rule="evenodd" d="m239.771 55.006c22.044 36.524-7.869 55.986-7.319 86.88-.434 23.635 16.981 40.582 15.303 63.588l25.74 11.026 29.225-11.026c1.678-23.006-15.737-39.954-15.303-63.588-.579-30.894 29.334-50.356 7.319-86.88z" fill="#ffd772" fill-rule="evenodd"/></g><g><path clip-rule="evenodd" d="m284.524 55.006c22.044 36.524-7.869 55.986-7.319 86.88-.434 23.635 16.981 40.582 15.303 63.588l19.988 15.026 14.583-15.026c1.649-23.006-15.737-39.954-15.303-63.588-.347-18.948 10.762-33.609 14.32-50.528 2.256-10.66 1.504-22.234-7.001-36.353h-34.571z" fill="#fbba58" fill-rule="evenodd"/></g><g><path clip-rule="evenodd" d="m215.413 55.006c22.044 36.524-7.869 55.986-7.29 86.88-.434 23.635 16.952 40.582 15.303 63.588l16.568 15.026 17.973-15.026c1.678-23.006-15.737-39.954-15.303-63.588-.579-30.894 29.334-50.356 7.319-86.88z" fill="#fbba58" fill-rule="evenodd"/></g><g><path clip-rule="evenodd" d="m411.754 260.46 44.493 43.955c8.013 7.916 21.118 7.916 29.103 0 8.013-7.888 8.013-20.834 0-28.751l-69.516-68.675c-14.524 2.115-14.842 45.841-4.08 53.471z" fill="#ffd772" fill-rule="evenodd"/></g><g><path clip-rule="evenodd" d="m249.433 329.307h-65.293c-.347 2.744-.521 5.516-.521 8.345 0 35.781 29.363 64.789 65.582 64.789s65.582-29.008 65.582-64.789c0-2.829-.202-5.602-.55-8.345z" fill="#ffd772" fill-rule="evenodd"/></g><g><path clip-rule="evenodd" d="m146.562 329.307c-32.024.029-53.634-13.604-57.598-51.128l19.093 181.391h282.723l19.093-181.391c-3.934 37.524-25.544 51.156-57.598 51.128h-38.042c.347 2.744.55 5.516.55 8.345 0 35.781-29.363 64.789-65.582 64.789s-65.582-29.008-65.582-64.789c0-2.829.174-5.602.521-8.345z" fill="#f37c7c" fill-rule="evenodd"/></g><g><path clip-rule="evenodd" d="m390.78 459.57h-282.723l3.443 32.723c.463 4.487 1.88 6.202 6.509 6.202h131.424 131.424c4.6 0 6.017-1.715 6.48-6.202z" fill="#ffd772" fill-rule="evenodd"/></g><g><path clip-rule="evenodd" d="m83.005 206.989-69.516 68.675c-7.984 7.916-7.984 20.863 0 28.751 8.013 7.916 21.089 7.916 29.103 0l44.522-43.955 9.604-38.582c-.232-2-14.61-13.917-13.713-14.889z" fill="#ffd772" fill-rule="evenodd"/></g><g><path clip-rule="evenodd" d="m184.141 329.307h-37.579c-32.024.029-53.634-13.604-57.598-51.128l5.554 52.7c9.055 20.691 27.483 28.693 52.043 28.693h37.579 3.327c-2.517-6.859-3.848-14.232-3.848-21.92.001-2.829.174-5.601.522-8.345z" fill="#ee6161" fill-rule="evenodd"/></g><g><path clip-rule="evenodd" d="m249.433 329.307h-65.293c-.347 2.744-.521 5.516-.521 8.345 0 7.688 1.331 15.061 3.848 21.92l61.966-.029 61.503.029c2.488-6.859 3.848-14.232 3.848-21.92 0-2.829-.202-5.602-.55-8.345h-3.703z" fill="#fbba58" fill-rule="evenodd"/></g><g><path clip-rule="evenodd" d="m87.662 205.474c-2.083 0-3.674.486-4.629 1.515h-.029c-.897.972-1.273 2.429-1.07 4.43l5.178 49.042 1.851 17.719c3.963 37.524 25.573 51.156 57.598 51.128h102.871 102.842c32.053.029 53.663-13.604 57.598-51.128l1.88-17.719 5.149-49.042c.231-2.001-.174-3.458-1.07-4.43-1.273-1.257-2.922-1.515-4.629-1.515-107.845 0-215.692 0-323.54 0z" fill="#f9f7f8" fill-rule="evenodd"/></g><g><path clip-rule="evenodd" d="m366.914 278.179c-3.876 37.038-25.024 50.814-56.383 51.128h3.703 38.042c32.053.029 53.663-13.604 57.598-51.128l1.88-17.719 5.149-49.042c.231-2.001-.174-3.458-1.07-4.43-1.273-1.257-2.922-1.515-4.629-1.515h-42.96c2.083 0 3.645.486 4.629 1.515.897.972 1.273 2.429 1.07 4.43z" fill="#e5e4ed" fill-rule="evenodd"/></g><g><path clip-rule="evenodd" d="m10.191 279.98c-4.484 7.745-3.385 17.862 3.298 24.435 8.013 7.916 21.089 7.916 29.103 0l44.522-43.955-1.938-18.262-42.583 42.068c-8.013 7.888-21.089 7.888-29.103 0-1.332-1.314-2.431-2.771-3.299-4.286z" fill="#fbba58" fill-rule="evenodd"/></g><g><path clip-rule="evenodd" d="m411.754 260.46 44.493 43.955c8.013 7.916 21.118 7.916 29.103 0 6.683-6.573 7.782-16.69 3.327-24.435-.897 1.515-1.996 2.972-3.327 4.287-7.984 7.888-21.089 7.888-29.103 0l-42.583-42.068z" fill="#fbba58" fill-rule="evenodd"/></g><g><path clip-rule="evenodd" d="m352.276 329.307h-38.042c.347 2.744.55 5.516.55 8.345 0 7.688-1.36 15.061-3.848 21.92h3.298 38.042c23.664 0 20.626 7.173 17.907 32.837l-7.059 67.161h27.656l13.568-128.691 5.525-52.7c-3.934 37.525-25.544 51.157-57.597 51.128z" fill="#ee6161" fill-rule="evenodd"/></g><g><path clip-rule="evenodd" d="m363.124 459.57-3.443 32.723c-.463 4.487-1.88 6.202-6.509 6.202h27.685c4.6 0 6.017-1.715 6.48-6.202l3.443-32.723z" fill="#fbba58" fill-rule="evenodd"/></g><g><path clip-rule="evenodd" d="m499.293 13.509-360.426 10.717c-2.864.086-5.207 2.343-5.207 5.173v25.607h186.418 184.422v-36.353c0-2.829-2.343-5.23-5.207-5.144z" fill="#e29d7b" fill-rule="evenodd"/></g><path d="m508.139 9.552c-2.457-2.385-5.691-3.65-9.069-3.54l-360.429 10.717c-6.999.211-12.482 5.776-12.482 12.67v51.214c0 6.895 5.483 12.459 12.488 12.67l40.74 1.194c-1.298 4.302-3.065 8.647-4.943 13.267-4.224 10.387-8.592 21.127-8.392 34.141-.208 13.016 4.159 23.758 8.383 34.147 3.017 7.42 5.898 14.527 6.764 21.943h-93.537c-5.407 0-8.523 2.145-10.2 3.975l-69.254 68.388c-5.3 5.254-8.215 12.264-8.208 19.737.007 7.46 2.925 14.448 8.217 19.676 5.466 5.399 12.644 8.099 19.823 8.098 7.177 0 14.356-2.699 19.82-8.097l33.411-32.986 22.768 216.297c1.103 10.689 8.206 12.932 13.97 12.932h262.849c5.751 0 12.837-2.243 13.939-12.916l22.771-216.333 33.407 33.005c5.476 5.408 12.661 8.112 19.84 8.112 7.177 0 14.348-2.701 19.795-8.103 5.84-5.75 8.801-13.629 8.163-21.927-.522-6.793-3.704-13.108-8.55-17.896l-69.12-68.284c-.054-.053-.112-.098-.167-.149-2.38-2.333-5.642-3.53-9.732-3.53h-76.708c-.844-10.06-4.437-18.935-7.945-27.572-3.837-9.446-7.46-18.368-7.276-28.378.001-.093.001-.186 0-.278-.188-10.01 3.438-18.931 7.276-28.378 1.862-4.582 3.788-9.331 5.301-14.335l62.293 1.852c.076.002.151.003.227.003 4.37 0 7.914-3.761 7.457-8.293-.382-3.786-3.71-6.6-7.513-6.713l-59.7-1.775c.355-6.658-.539-13.807-3.503-21.602h165.887v26.425l-67.175-1.983c-4.177-.093-7.597 3.135-7.719 7.276s3.136 7.596 7.276 7.719l69.686 2.058c.127.003.254.005.382.005 3.251 0 6.324-1.25 8.689-3.545 2.454-2.381 3.861-5.698 3.861-9.102v-72.705c0-3.403-1.407-6.72-3.861-9.101zm-470.819 289.527c-5.116 5.056-13.443 5.056-18.56 0-2.421-2.392-3.756-5.594-3.759-9.017-.003-3.438 1.335-6.659 3.758-9.061l57.031-56.317 3.472 32.988zm385.73-74.417 57.027 56.337c2.441 2.412 3.784 5.63 3.781 9.063-.003 3.418-1.343 6.617-3.79 9.027-5.103 5.062-13.424 5.055-18.552-.009l-41.938-41.432zm-281.89-146.313v-15.843h35.327c3.228 6.222 4.693 11.773 4.974 17.024zm47.17 92.033c-3.837-9.44-7.463-18.356-7.279-28.358.002-.091.002-.181 0-.271-.178-10.003 3.448-18.918 7.287-28.358 5.852-14.389 12.359-30.411 4.558-50.889h18.131c9.165 17.665 4.179 29.94-2.031 45.226-4.222 10.392-8.587 21.136-8.375 34.157-.207 13.021 4.158 23.767 8.379 34.16 3.011 7.415 5.888 14.516 6.76 21.926h-19.48c-.837-10.069-4.436-18.95-7.95-27.593zm39.108-107.876h18.156c9.148 17.659 4.161 29.933-2.051 45.216-4.224 10.395-8.592 21.141-8.381 34.166-.207 13.015 4.16 23.756 8.383 34.144 3.017 7.421 5.898 14.527 6.764 21.943h-19.467c-.844-10.059-4.437-18.934-7.945-27.571-3.837-9.446-7.461-18.369-7.277-28.379.002-.093.002-.186 0-.278-.188-10.006 3.436-18.926 7.273-28.369 5.845-14.386 12.342-30.402 4.545-50.872zm34.563 0h18.138c9.169 17.67 4.176 29.948-2.043 45.238-4.225 10.387-8.592 21.126-8.392 34.14-.208 13.016 4.159 23.758 8.383 34.148 3.017 7.42 5.898 14.526 6.764 21.942h-19.459c-.838-10.068-4.436-18.949-7.95-27.592-3.838-9.44-7.463-18.356-7.279-28.358.002-.093.002-.186 0-.278-.188-10.01 3.439-18.931 7.277-28.377 5.845-14.382 12.344-30.396 4.561-50.863zm122.029 389.564h-118.141c-3.835 0-7.266 2.755-7.727 6.562-.553 4.562 2.992 8.438 7.443 8.438h116.847l-2.518 23.924h-261.029l-2.518-23.924h113.582c3.835 0 7.266-2.755 7.727-6.562.553-4.562-2.992-8.438-7.443-8.438h-115.446l-13.634-129.526c10.83 9.482 25.945 14.263 45.285 14.263h.104 29.571c-.003.282-.013.563-.013.845 0 39.86 32.784 72.29 73.082 72.29s73.083-32.429 73.083-72.29c0-.28-.01-.564-.014-.845h29.999.104c19.343 0 34.459-4.777 45.289-14.248zm-192.904-115.256c.003-.003.004-.004.007-.007h116.137l.008.008c.465 31.971-25.767 58.126-58.076 58.126s-58.541-26.155-58.076-58.127zm211.297-59.477c-.002.02-.007.04-.009.06-3.22 30.712-18.65 44.41-50.042 44.41-.031 0-.065 0-.096 0h-38.204c-.006 0-.011 0-.017 0h-167.5c-.032 0-.063 0-.095 0-31.358 0-46.793-13.702-50.037-44.416-.002-.015-.005-.029-.007-.045l-6.755-64.176c.258.03.452-.055.591-.196h318.947zm-89.769-169.616c-4.224 10.395-8.592 21.142-8.38 34.167-.207 13.021 4.158 23.767 8.379 34.161 3.011 7.414 5.888 14.516 6.76 21.926h-19.481c-.838-10.068-4.436-18.949-7.95-27.591-3.838-9.441-7.463-18.357-7.278-28.359.001-.09.001-.181 0-.271-.179-10.003 3.447-18.918 7.286-28.358 5.852-14.389 12.359-30.411 4.558-50.889h18.156c9.15 17.658 4.162 29.931-2.05 45.214zm184.346-60.215h-355.84v-15.845l355.84-10.581z"/></g></svg>