<svg id="Capa_1" enable-background="new 0 0 512 512" height="512" viewBox="0 0 512 512" width="512" xmlns="http://www.w3.org/2000/svg"><g><g id="_x3C_Group_x3E__12_"><path d="m462.266 499.5h-174.488c-8.284 0-15-6.716-15-15v-457c0-5.523 4.477-10 10-10l5-10h189.488c5.523 0 10 4.477 10 10v80.516l-10 108.644 10 175.915v96.925l-10 5c0 8.284-6.716 15-15 15z" fill="#edf6ff"/><path d="m334.534 479.5c-4.365 0-6.656-5.221-3.663-8.398 32.258-34.233 52.036-80.352 52.036-131.102 0-70.583-38.24-132.225-95.128-165.364v-167.136h-15c-5.523 0-10 4.477-10 10v80.516l10 64.403-10 43.667v267.829 15.585c0 8.284 6.716 15 15 15h11.467 183.021c8.284 0 15-6.716 15-15v-10z" fill="#ddebfd"/><path d="m487.265 98.016h-199.487l-12 3v224.613c0 28.419-3.43 107.535 54.539 107.535l101.983-.065c23.111-.015 42.886-4.283 51.012-24.487 2.55-6.339 3.953-13.262 3.953-20.513z" fill="#ffd064"/><path d="m483.354 408.466c-8.835 6.066-19.527 9.625-31.053 9.632l-71.421.065c-7.022 0-11.812-7.03-9.326-13.597 7.345-19.401 11.901-40.163 11.901-61.748 0-76.007-35.288-131.437-90.735-164.117-3.055-1.801-4.942-5.071-4.942-8.618v-72.067h-25v65.999 45.055 116.558c0 28.419 3.721 56.716 11.069 84.169v.001c4.129 15.428 15.981 27.169 30.725 31.523.004.001.008.002.011.003 4.786 1.632 12.138 1.838 12.734 1.838h35.299 80.11c.026-.026.049-.049.075-.075 22.948-.218 42.52-14.49 50.553-34.621z" fill="#ffc250"/><path d="m133.663 198.737c-7.844-14.398-20.646-27.601-34.66-39.005v-.002c-18.574-15.115-39.279-27.066-53.394-34.439-1.522-.795-10.963 14.218-10.963 14.218s-3.788 73.738 15.574 109.277c25.771 47.301 45.951 53.559 71.724 39.518 16.479-8.978 14.286-12.898 3.826-26.92.515.135 1.027.277 1.549.4 5.998 1.419 11.951 1.954 17.73 1.435 5.932-15.601 3.717-36.761-11.386-64.482z" fill="#daf1a1"/><path d="m141.944 268.305c-25.773 14.042-55.842 8.583-81.613-38.717-16.329-29.971-16.667-75.185-14.723-104.294-1.519-.793-2.97-1.54-4.326-2.225-6.238-3.155-13.711.917-14.442 7.869-2.75 26.137-5.871 83.112 13.491 118.651 25.771 47.301 55.84 52.759 81.613 38.717 9.181-5.002 16.563-11.816 21.117-20.639-.372.211-.738.431-1.117.638z" fill="#c9eb74"/><path d="m220.849 202.935c-12.4 52.419-44.757 45.852-49.097 45.852-29.35 0-53.591-23.837-41.191-76.255 9.317-39.384 37.447-71.915 56-91.202l.955-.929c5.196-3.714 12.699-1.622 15.092 4.521 9.537 24.489 27.558 78.629 18.241 118.013z" fill="#daf1a1"/><path d="m182.319 231.785c-28.562-6.756-47.3-30.898-34.9-83.316 5.73-24.224 23.208-48.797 40.351-68.232-.402.269-.794.562-1.168.899-19.499 17.62-59.867 57.948-69.183 97.333-12.4 52.419 6.339 76.56 34.9 83.316 22.614 5.349 44.603-1.809 58.936-31.037-9.123 3.319-18.968 3.395-28.936 1.037z" fill="#c9eb74"/><circle cx="191.651" cy="342" fill="#ffe07d" r="142.234"/><path d="m191.651 179.5c-89.746 0-162.5 72.754-162.5 162.5s72.754 162.5 162.5 162.5 162.5-72.754 162.5-162.5-72.753-162.5-162.5-162.5zm0 291.317c-71.143 0-128.817-57.673-128.817-128.817s57.673-128.817 128.817-128.817 128.817 57.674 128.817 128.817-57.673 128.817-128.817 128.817z" fill="#ffd064"/><g><path d="m211.643 495.5c-98.578 0-173.492-74.914-173.492-173.492 0-13.707 1.55-32.052 4.475-44.872-8.66 19.87-13.475 41.803-13.475 64.864 0 89.746 72.754 162.5 162.5 162.5 23.061 0 44.994-4.814 64.864-13.475-12.82 2.925-31.164 4.475-44.872 4.475z" fill="#ffc250"/></g><g fill="#ffd064"><path d="m176.234 367.784-21.138 36.613c-6.633 11.489 1.658 25.851 14.925 25.851h42.277c13.267 0 21.558-14.362 14.925-25.851l-21.138-36.613c-6.634-11.49-23.217-11.49-29.851 0z"/><path d="m206.579 316.607 21.116-36.575c6.633-11.489-1.658-25.851-14.925-25.851h-42.233c-13.267 0-21.558 14.361-14.925 25.851l21.116 36.575c6.634 11.489 23.218 11.489 29.851 0z"/><path d="m162.045 341.766-42.274-.439c-13.266-.138-21.706 14.137-15.193 25.694l20.757 36.83c6.514 11.558 23.096 11.73 29.848.31l21.518-36.391c6.752-11.419-1.39-25.866-14.656-26.004z"/><path d="m220.937 342.297 42.23.439c13.266.138 21.706-14.137 15.193-25.694l-20.735-36.792c-6.514-11.558-23.096-11.73-29.848-.31l-21.495 36.353c-6.753 11.42 1.389 25.867 14.655 26.004z"/><path d="m177.109 316.438-20.948-36.722c-6.574-11.523-23.157-11.609-29.849-.155l-21.328 36.503c-6.693 11.455 1.524 25.859 14.791 25.928l42.276.219c13.266.068 21.631-14.25 15.058-25.773z"/><path d="m206.235 368.033 20.927 36.683c6.574 11.523 23.157 11.609 29.849.155l21.305-36.465c6.693-11.455-1.524-25.859-14.791-25.928l-42.232-.219c-13.266-.068-21.632 14.251-15.058 25.774z"/></g><path d="m228.298 412.247h-47.539c-7.025 0-11.86-7.053-9.327-13.606l15.007-38.819c-4.077 1.143-7.797 3.792-10.204 7.961l-21.138 36.613c-6.633 11.489 1.658 25.851 14.925 25.851h42.277c10.351 0 17.672-8.743 17.24-18.043-.41.028-.823.043-1.241.043z" fill="#ffc250"/><path d="m178.136 324.286-47.539-.247c-7.025-.037-11.824-7.115-9.256-13.654l15.209-38.74c-4.083 1.122-7.816 3.751-10.245 7.908l-21.329 36.502c-6.693 11.455 1.524 25.859 14.79 25.928l42.276.22c10.351.054 17.718-8.651 17.334-17.953-.408.025-.822.038-1.24.036z" fill="#ffc250"/><path d="m196.729 316.607-21.116-36.575c-9.818-16.436 1.658-25.851 14.925-25.851h-20c-13.267 0-21.558 14.362-14.925 25.851l21.116 36.575c5.328 9.228 17.07 11.037 24.925 5.442-1.925-1.372-3.619-3.181-4.925-5.442z" fill="#ffc250"/><path d="m280.585 324.72-45.911-.556c-7.025-.085-11.774-7.196-9.162-13.718l15.581-38.895c-5.221.452-10.27 3.236-13.317 8.389l-21.495 36.353c-6.752 11.42 1.39 25.867 14.655 26.004l42.23.439c10.408.108 17.842-8.654 17.419-18.016z" fill="#ffc250"/><path d="m247.162 404.717-20.927-36.683c-9.291-15.586 1.042-24.49 13.223-25.679l-18.165-.094c-13.266-.069-21.632 14.25-15.059 25.773l20.927 36.683c5.297 9.284 17.088 11.138 24.971 5.519-1.947-1.387-3.66-3.222-4.97-5.519z" fill="#ffc250"/><path d="m142.335 394.851-20.757-36.83c-3.138-5.568-2.798-11.763-.127-16.677l-1.68-.017c-13.266-.138-21.706 14.137-15.193 25.694l20.757 36.83c6.514 11.557 23.096 11.73 29.848.31l.377-.638c-5.242-.537-10.27-3.428-13.225-8.672z" fill="#ffc250"/></g><g><path d="m477.266 0h-204.488c-9.649 0-17.5 7.851-17.5 17.5v166.865c-7.845-3.178-15.978-5.789-24.351-7.776-.453-35.441-13.362-73.928-21.331-94.389-2.087-5.357-6.674-9.345-12.271-10.669-5.595-1.325-11.485.187-15.751 4.041-7.125 6.438-17.923 16.714-28.908 29.106-2.748 3.1-2.462 7.84.637 10.587 3.1 2.748 7.84 2.462 10.587-.637 10.529-11.878 20.897-21.744 27.74-27.927.842-.761 1.767-.687 2.241-.573.476.112 1.335.459 1.747 1.516 7.361 18.9 19.156 53.869 20.239 86.088-7.91-1.133-15.989-1.731-24.207-1.731-24.261 0-47.346 5.12-68.247 14.318.395-2.011.822-4.046 1.314-6.123 2.789-11.792 8.927-24.831 18.245-38.756 2.303-3.443 1.38-8.101-2.063-10.404s-8.101-1.379-10.404 2.063c-6.964 10.409-12.345 20.481-16.096 30.094-23.315-21.72-52.951-38.329-69.732-46.816-5.13-2.594-11.208-2.5-16.259.251-5.051 2.752-8.426 7.808-9.027 13.525-3.778 33.948-5.537 97.207 21.039 134.249-11.992 23.277-18.77 49.661-18.77 77.599 0 38.15 12.347 74.199 35.707 104.249 2.542 3.27 7.254 3.86 10.524 1.318s3.86-7.254 1.318-10.524c-21.293-27.394-32.548-60.259-32.548-95.044 0-85.467 69.533-155 155-155s155 69.533 155 155-69.533 155-155 155c-36.225 0-71.466-12.758-99.233-35.924-3.181-2.654-7.91-2.227-10.563.954s-2.227 7.91.954 10.563c30.458 25.412 69.112 39.407 108.842 39.407 23.26 0 45.441-4.7 65.65-13.193 3.548 7.774 11.389 13.193 20.477 13.193h194.488c12.407 0 22.5-10.093 22.5-22.5v-472c0-9.649-7.851-17.5-17.5-17.5zm-428.289 249.669c-20.637-33.235-17.342-94.364-14.677-117.948.119-1.128.856-1.688 1.285-1.922s1.3-.551 2.313-.038c17.381 8.79 49.173 26.657 71.622 49.614-1.171 5.296-2.048 10.417-2.63 15.305-23.373 13.5-43.247 32.404-57.913 54.989zm221.301-58.356v-85.797h130.622c4.142 0 7.5-3.358 7.5-7.5s-3.358-7.5-7.5-7.5h-130.622v-73.016c0-1.378 1.122-2.5 2.5-2.5h204.488c1.378 0 2.5 1.122 2.5 2.5v73.016h-43.863c-4.142 0-7.5 3.358-7.5 7.5s3.358 7.5 7.5 7.5h43.863v281.812c0 25.3-19.371 46.485-44.098 48.229-1.008.071-1.998.107-2.942.107h-99.279c17.812-26.876 28.204-59.077 28.204-93.664 0-65.386-37.112-122.259-91.373-150.687zm209.488 298.187c0 4.136-3.364 7.5-7.5 7.5h-194.488c-3.115 0-5.79-1.909-6.922-4.618 19.761-10.45 37.227-24.675 51.428-41.718h110.443c1.294 0 2.639-.048 3.997-.144 17.241-1.216 32.501-9.579 43.043-22.1v61.08z"/><path d="m319.232 322.556c4.052-.857 6.643-4.837 5.786-8.89-6.367-30.11-23.053-57.5-46.983-77.124-24.267-19.9-54.945-30.859-86.383-30.859-75.165 0-136.316 61.151-136.316 136.316s61.151 136.316 136.316 136.316c71.828 0 131.587-56.1 136.049-127.716.258-4.134-2.885-7.694-7.019-7.952-4.121-.261-7.694 2.885-7.952 7.019-3.971 63.729-57.154 113.649-121.079 113.649-66.894 0-121.316-54.422-121.316-121.316s54.422-121.316 121.316-121.316c57.001 0 106.918 40.41 118.691 96.086.857 4.052 4.834 6.64 8.89 5.787z"/><path d="m98.044 371.508 20.938 36.728c4.428 7.768 12.411 12.435 21.353 12.484h.142c2.144 0 4.233-.272 6.234-.784.553 1.853 1.318 3.668 2.321 5.404 4.485 7.769 12.516 12.407 21.48 12.407h42.276c8.407 0 16.157-4.203 20.731-11.242 1.227-1.888 2.167-3.9 2.835-5.978 2.093.576 4.287.883 6.544.895h.134c8.888 0 16.861-4.575 21.35-12.256l21.306-36.465c4.511-7.721 4.559-16.967.128-24.733-1.125-1.972-2.481-3.742-4.022-5.289 1.204-1.296 2.289-2.729 3.22-4.303 4.531-7.663 4.618-16.883.232-24.664l-20.735-36.792c-4.388-7.787-12.335-12.49-21.258-12.583-2.033-.019-4.018.213-5.932.657-.535-1.96-1.31-3.88-2.343-5.717-4.383-7.794-12.337-12.507-21.279-12.609l-42.23-.478c-8.923-.082-17 4.431-21.559 12.124-1.119 1.888-1.965 3.87-2.547 5.9-1.899-.464-3.873-.722-5.902-.733-.046 0-.091 0-.136 0-8.959 0-16.985 4.59-21.489 12.297l-21.328 36.503c-4.515 7.729-4.561 16.987-.123 24.766 1.01 1.771 2.213 3.371 3.561 4.802-1.428 1.455-2.698 3.1-3.766 4.927-4.514 7.718-4.565 16.964-.136 24.732zm42.372 34.212c-1.69-.009-5.891-.506-8.403-4.913l-20.938-36.728c-2.512-4.407-.8-8.275.053-9.734.85-1.453 3.363-4.821 8.394-4.821h.062l42.276.231c5.072.028 7.566 3.445 8.403 4.913.836 1.468 2.506 5.355-.054 9.733l-21.338 36.497c-2.559 4.38-6.774 4.819-8.455 4.822zm57.139-73.904c.541 2.006 1.335 3.971 2.395 5.852 1.141 2.025 2.526 3.836 4.102 5.419-1.24 1.333-2.357 2.811-3.309 4.441-.954 1.632-1.696 3.335-2.25 5.075-1.858-.513-3.792-.822-5.779-.891-2.464-.087-4.873.193-7.177.785-.54-1.8-1.278-3.564-2.242-5.255-1.015-1.781-2.225-3.389-3.582-4.826 1.262-1.282 2.405-2.706 3.388-4.276 1.267-2.024 2.209-4.177 2.846-6.391 1.825.443 3.718.695 5.662.717.099.001.195.001.293.001 1.938-.001 3.828-.231 5.653-.651zm23.384 86.517c-1.823 2.806-4.794 4.415-8.152 4.415h-42.277c-3.542 0-6.715-1.834-8.49-4.907-.843-1.46-2.531-5.326-.012-9.69.002-.004.004-.008.006-.013l21.143-36.163c.231-.395.443-.797.651-1.2 1.917-2.665 5.027-4.182 8.383-4.072 3.404.119 6.323 1.861 8.01 4.781.137.26.265.522.411.778l20.927 36.684c.087.152.183.294.273.444 1.197 2.915.886 6.236-.873 8.943zm51.796-53.2-21.306 36.465c-2.536 4.34-6.688 4.824-8.408 4.824-.016 0-.032 0-.047 0-1.69-.009-5.891-.504-8.404-4.91l-20.927-36.684c-2.514-4.406-.802-8.275.05-9.734.838-1.434 3.302-4.729 8.204-4.815l1.803.006h.026c.033 0 .066-.005.099-.005l40.555.21c5.072.026 7.567 3.442 8.404 4.91.838 1.468 2.509 5.354-.049 9.733zm-21.293-80.85 20.735 36.792c1.749 3.103 1.721 6.626-.076 9.665-1.805 3.053-4.902 4.83-8.476 4.745-.001 0-.001 0-.002 0l-41.397-.214c-.083 0-.165.007-.248.008l-.608-.002c-5.038-.052-7.52-3.496-8.353-4.974-1.753-3.112-1.724-6.79.079-9.839.009-.016.016-.033.026-.049.015-.025.032-.048.047-.073l21.448-36.198c.005-.008.011-.015.015-.023 2.584-4.372 6.765-4.81 8.464-4.785 1.681.017 5.858.534 8.346 4.947zm-88.628-18.323c.854-1.441 3.369-4.772 8.356-4.772h.127l42.23.478c5.072.058 7.546 3.489 8.375 4.962.828 1.473 2.475 5.369-.111 9.733l-21.528 36.333c-2.585 4.362-6.805 4.78-8.484 4.771-1.69-.019-5.888-.541-8.375-4.962l-20.701-36.811c-2.486-4.42-.751-8.278.111-9.732zm-51.355 53.888 21.328-36.502c1.782-3.049 4.972-4.865 8.542-4.865h.055c1.701.009 5.925.501 8.417 4.869.002.004.005.007.007.011l20.524 36.496c.215.382.445.749.676 1.116 1.365 2.964 1.148 6.385-.618 9.207-1.821 2.909-4.826 4.573-8.25 4.573-.031 0-.062 0-.095 0-.031 0-.062.004-.093.005-.003 0-.005 0-.008 0l-42.096-.23c-.015 0-.029-.002-.044-.002-5.059-.026-7.553-3.442-8.39-4.91-1.752-3.071-1.735-6.722.045-9.768z"/></g></g></svg>