<svg id="Capa_1" enable-background="new 0 0 512.004 512.004" height="512" viewBox="0 0 512.004 512.004" width="512" xmlns="http://www.w3.org/2000/svg"><g><g><path d="m420.265 384.532h-70.102v-83.944h118.296c6.004 0 10.872 4.867 10.872 10.872v14.006c0 32.621-26.445 59.066-59.066 59.066z" fill="#fe646f"/><path d="m468.459 300.587h-23.663c6.004 0 10.872 4.867 10.872 10.872v14.006c0 32.621-26.445 59.066-59.066 59.066h23.663c32.621 0 59.066-26.445 59.066-59.066v-14.006c0-6.004-4.867-10.872-10.872-10.872z" fill="#fd4755"/><g><path d="m301.312 384.532v-55.963h56.051c8.466 0 15.33 6.863 15.33 15.33v25.304c0 8.466-6.863 15.33-15.33 15.33h-56.051z" fill="#f6a96c"/><path d="m357.363 328.569h-23.663c8.466 0 15.33 6.863 15.33 15.33v25.304c0 8.466-6.863 15.33-15.33 15.33h23.663c8.466 0 15.33-6.863 15.33-15.33v-25.304c-.001-8.467-6.864-15.33-15.33-15.33z" fill="#d88a55"/><path d="m237.64 320.86h55.963v71.38h-55.963z" fill="#f6a96c" transform="matrix(0 1 -1 0 622.172 90.929)"/><path d="m277.649 328.569h23.663v55.963h-23.663z" fill="#d88a55"/><path d="m180.111 334.711h55.963v43.678h-55.963z" fill="#ffe5c2" transform="matrix(0 1 -1 0 564.642 148.458)"/><path d="m206.268 328.569h23.663v55.963h-23.663z" fill="#fed2a4"/><path d="m119.106 369.202v-25.304c0-8.466 6.863-15.33 15.33-15.33h51.817v55.963h-51.817c-8.467.001-15.33-6.863-15.33-15.329z" fill="#f6a96c"/><path d="m162.59 328.569h23.663v55.963h-23.663z" fill="#d88a55"/></g><g><path d="m301.312 328.569v-55.963h56.051c8.466 0 15.33 6.863 15.33 15.33v25.304c0 8.466-6.863 15.33-15.33 15.33h-56.051z" fill="#f6a96c"/><path d="m357.363 272.606h-23.663c8.466 0 15.33 6.863 15.33 15.33v25.304c0 8.466-6.863 15.33-15.33 15.33h23.663c8.466 0 15.33-6.863 15.33-15.33v-25.304c-.001-8.467-6.864-15.33-15.33-15.33z" fill="#d88a55"/><path d="m237.64 264.897h55.963v71.38h-55.963z" fill="#f6a96c" transform="matrix(0 1 -1 0 566.209 34.966)"/><path d="m277.652 272.602h23.66v55.97h-23.66z" fill="#d88a55"/><path d="m180.111 278.748h55.963v43.678h-55.963z" fill="#ffe5c2" transform="matrix(0 1 -1 0 508.68 92.495)"/><path d="m206.268 272.606h23.663v55.963h-23.663z" fill="#fed2a4"/><path d="m119.106 313.239v-25.304c0-8.466 6.863-15.33 15.33-15.33h51.817v55.963h-51.817c-8.467.001-15.33-6.863-15.33-15.329z" fill="#f6a96c"/><path d="m162.59 272.606h23.663v55.963h-23.663z" fill="#d88a55"/></g><g><path d="m330.242 272.606v-40.633c0-8.466 6.863-15.33 15.33-15.33h40.721c8.466 0 15.33 6.863 15.33 15.33v25.304c0 8.466-6.863 15.33-15.33 15.33h-56.051z" fill="#f6a96c"/><path d="m386.293 216.643h-23.663c8.466 0 15.33 6.863 15.33 15.33v25.304c0 8.466-6.863 15.329-15.329 15.33h23.663c8.466 0 15.33-6.863 15.33-15.33v-25.304c-.001-8.466-6.865-15.33-15.331-15.33z" fill="#d88a55"/><path d="m258.862 272.606v-40.633c0-8.466 6.863-15.33 15.33-15.33h40.721c8.466 0 15.33 6.863 15.33 15.33v40.633z" fill="#f6a96c"/><path d="m314.913 216.643h-23.663c8.466 0 15.33 6.863 15.33 15.33v40.633h23.663v-40.633c-.001-8.466-6.864-15.33-15.33-15.33z" fill="#d88a55"/><path d="m215.183 272.606v-40.633c0-8.466 6.863-15.33 15.33-15.33h13.019c8.466 0 15.33 6.863 15.33 15.33v40.633z" fill="#ffe5c2"/><path d="m243.532 216.643h-13.019c-1.874 0-3.662.353-5.322.969 5.839 2.165 10.008 7.769 10.008 14.361v40.633h23.663v-40.633c0-8.466-6.864-15.33-15.33-15.33z" fill="#fed2a4"/><path d="m148.036 257.276v-25.304c0-8.466 6.863-15.33 15.33-15.33h36.488c8.466 0 15.33 6.863 15.33 15.33v40.633h-51.817c-8.467.001-15.331-6.862-15.331-15.329z" fill="#f6a96c"/><path d="m199.854 216.643h-23.663c8.466 0 15.33 6.863 15.33 15.33v40.633h23.663v-40.633c-.001-8.466-6.864-15.33-15.33-15.33z" fill="#d88a55"/></g><path d="m17.763 384.532h476.478c6.626 0 11.514 6.19 9.976 12.635l-4.036 16.922c-1.847 7.747-8.771 13.213-16.735 13.213h-454.889c-7.964 0-14.887-5.466-16.735-13.213l-4.036-16.922c-1.537-6.446 3.35-12.635 9.977-12.635z" fill="#b9acac"/><path d="m494.241 384.532h-23.663c6.626 0 11.514 6.19 9.977 12.635l-4.036 16.922c-1.847 7.747-8.771 13.213-16.735 13.213h23.663c7.964 0 14.887-5.466 16.735-13.213l4.036-16.922c1.537-6.446-3.351-12.635-9.977-12.635z" fill="#9e9797"/><path d="m175.305 490.848h165.901c8.291 0 15.963-4.383 20.174-11.525l30.672-52.022h-267.594l30.672 52.022c4.212 7.142 11.884 11.525 20.175 11.525z" fill="#9e9797"/><path d="m368.389 427.302-30.672 52.022c-4.211 7.142-11.883 11.525-20.174 11.525h23.663c8.291 0 15.963-4.383 20.174-11.525l30.672-52.022z" fill="#878383"/></g><g><path d="m508.177 383.785c-3.388-4.292-8.468-6.754-13.936-6.754h-31.938c14.958-12.217 24.529-30.794 24.529-51.569v-14c0-10.129-8.241-18.37-18.37-18.37h-37.095c-4.142 0-7.5 3.357-7.5 7.5s3.358 7.5 7.5 7.5h37.095c1.858 0 3.37 1.512 3.37 3.37v14c0 28.423-23.113 51.548-51.532 51.569h-41.491c.895-2.443 1.383-5.08 1.383-7.829v-5.152h15.931c4.142 0 7.5-3.357 7.5-7.5s-3.358-7.5-7.5-7.5h-15.931v-5.151c0-5.895-2.246-11.275-5.927-15.33 3.681-4.055 5.927-9.435 5.927-15.33v-5.151h15.931c4.142 0 7.5-3.357 7.5-7.5s-3.358-7.5-7.5-7.5h-15.931v-5.152c0-2.749-.489-5.386-1.383-7.829h7.484c12.588 0 22.83-10.241 22.83-22.83v-5.151h15.931c4.142 0 7.5-3.357 7.5-7.5s-3.358-7.5-7.5-7.5h-15.931v-5.152c0-12.588-10.241-22.829-22.83-22.829h-40.721c-5.895 0-11.275 2.246-15.33 5.927-4.055-3.681-9.435-5.927-15.33-5.927h-40.721c-5.895 0-11.275 2.246-15.33 5.927-4.055-3.681-9.435-5.927-15.33-5.927h-13.019c-5.895 0-11.275 2.246-15.33 5.927-4.055-3.681-9.435-5.927-15.33-5.927h-36.488c-12.588 0-22.83 10.241-22.83 22.829v5.152h-97.49c-4.142 0-7.5 3.357-7.5 7.5s3.358 7.5 7.5 7.5h97.49v5.151c0 2.749.489 5.387 1.384 7.83h-7.485c-12.588 0-22.83 10.241-22.83 22.829v5.152l-97.489-.001c-4.142 0-7.5 3.358-7.5 7.5s3.358 7.5 7.5 7.5l97.489.001v5.151c0 5.895 2.246 11.274 5.927 15.329-3.681 4.055-5.927 9.435-5.927 15.33v5.151h-97.486c-4.142 0-7.5 3.357-7.5 7.5s3.358 7.5 7.5 7.5h97.489v5.152c0 2.749.489 5.386 1.383 7.829h-95.226c-5.468 0-10.548 2.462-13.936 6.754-3.389 4.291-4.604 9.804-3.335 15.121l4.035 16.923c2.663 11.172 12.545 18.974 24.03 18.974h350.367l-24.004 40.712c-2.85 4.833-8.104 7.835-13.714 7.835h-165.901c-5.609 0-10.864-3.002-13.713-7.835l-12.104-20.527c-2.103-3.567-6.701-4.754-10.27-2.651-3.568 2.104-4.755 6.702-2.651 10.271l12.104 20.527c5.534 9.386 15.74 15.216 26.634 15.216h165.901c10.895 0 21.101-5.83 26.635-15.216l28.496-48.331h87.11c11.484 0 21.366-7.802 24.03-18.974l4.035-16.921c1.269-5.319.054-10.832-3.335-15.123zm-199.365-6.754v-40.962h48.551c4.317 0 7.83 3.512 7.83 7.829v25.304c0 4.317-3.512 7.829-7.83 7.829zm-71.381 0v-40.962h56.38v40.962zm-43.678 0v-40.962h28.678v40.962zm28.678-96.925v40.962h-28.678v-40.962zm71.381 0v40.962h-56.38v-40.962zm71.38 7.83v25.304c0 4.317-3.512 7.829-7.83 7.829h-48.551v-40.962h48.551c4.318-.001 7.83 3.511 7.83 7.829zm-19.62-63.792h40.721c4.317 0 7.83 3.512 7.83 7.829v25.304c0 4.317-3.512 7.83-7.83 7.83h-48.551v-33.134c0-4.318 3.512-7.829 7.83-7.829zm-71.381 0h40.721c4.317 0 7.83 3.512 7.83 7.829v33.134h-56.38v-33.134c0-4.318 3.512-7.829 7.829-7.829zm-43.678 0h13.019c4.317 0 7.83 3.512 7.83 7.829v33.134h-28.678v-33.134c0-4.318 3.512-7.829 7.829-7.829zm-74.976 33.132v-25.304c0-4.317 3.512-7.829 7.83-7.829h36.488c4.317 0 7.83 3.512 7.83 7.829v33.134h-44.317c-4.319 0-7.831-3.512-7.831-7.83zm-28.931 30.66c0-4.317 3.512-7.829 7.83-7.829h28.931 15.387v40.962h-44.317c-4.317 0-7.83-3.512-7.83-7.829v-25.304zm0 81.266v-25.304c0-4.317 3.512-7.83 7.83-7.83l44.317.001v40.962h-44.317c-4.318 0-7.83-3.511-7.83-7.829zm370.316 26.226-4.035 16.921c-1.046 4.389-4.928 7.453-9.439 7.453h-454.891c-4.511 0-8.393-3.064-9.439-7.452l-4.035-16.923c-.27-1.13.208-1.956.518-2.347.309-.392 1.001-1.049 2.163-1.049h476.479c1.162 0 1.854.657 2.163 1.049.307.391.785 1.217.516 2.348z"/><path d="m195.18 178.54c4.142 0 7.5-3.357 7.5-7.5v-29.085c0-13.518 5.264-26.227 14.823-35.785 12.392-12.393 19.216-28.867 19.216-46.392v-38.623c0-4.143-3.358-7.5-7.5-7.5s-7.5 3.357-7.5 7.5v38.623c0 13.518-5.264 26.226-14.823 35.784-12.392 12.393-19.216 28.868-19.216 46.393v29.085c0 4.143 3.358 7.5 7.5 7.5z"/><path d="m269.388 117.749c4.142 0 7.5-3.357 7.5-7.5v-25.312c0-13.518 5.264-26.227 14.823-35.785l11.291-11.291c2.929-2.93 2.929-7.678 0-10.607-2.929-2.928-7.678-2.928-10.606 0l-11.291 11.291c-12.392 12.393-19.216 28.868-19.216 46.393v25.312c-.001 4.142 3.357 7.499 7.499 7.499z"/><path d="m269.388 178.54c4.142 0 7.5-3.357 7.5-7.5v-25.572c0-4.143-3.358-7.5-7.5-7.5s-7.5 3.357-7.5 7.5v25.572c0 4.143 3.358 7.5 7.5 7.5z"/><path d="m321.331 143.651c4.142 0 7.5-3.357 7.5-7.5v-52.304c0-4.143-3.358-7.5-7.5-7.5s-7.5 3.357-7.5 7.5v52.305c0 4.142 3.357 7.499 7.5 7.499z"/></g></g></svg>