<svg id="Capa_1" enable-background="new 0 0 512 512" height="512" viewBox="0 0 512 512" width="512" xmlns="http://www.w3.org/2000/svg"><g><g><g clip-rule="evenodd" fill-rule="evenodd"><path d="m108.749 61.002v30c0 24.75 20.251 45 45 45h30.001c24.749 0 45-20.25 45-45v-30z" fill="#c8d1da"/><path d="m228.749 61.002v30h227.001c8.246 0 15-6.75 15-15s-6.752-15-15-15z" fill="#c8d1da"/><path d="m123.749 61.002h90c0-22.8-25.348-53.501-45-53.501-19.652-.001-45 30.701-45 53.501z" fill="#fff"/><path d="m281.249 181.001h-225c-8.248 0-15 6.75-15 15s6.752 15 15 15h225c8.247 0 15-6.75 15-15s-6.75-15-15-15z" fill="#c8d1da"/><path d="m281.249 211.001h-225v37.499l-15 30v22.5c21.533 0 32.653-20.557 52.304-20.557 19.652 0 30.772 20.557 52.304 20.557h150.391v-22.5l-15-30v-37.499z" fill="#8ad8f6"/><path d="m145.858 300.999c-21.532 0-32.653-20.557-52.304-20.557-19.652 0-30.771 20.557-52.304 20.557v188.5l15 15h225l15-15v-188.5zm52.891 101.751h30v60h-120v-60h30v-60h60z" fill="#fff"/><path d="m108.749 61.002v30c0 24.75 20.251 45 45 45h22.5c-24.749 0-45-20.25-45-45v-30z" fill="#adb9c8"/><path d="m228.749 61.002h22.5v30h-22.5z" fill="#adb9c8"/><path d="m123.749 61.002h90c0-7.121-2.473-15.013-6.473-22.5h-77.055c-3.999 7.487-6.472 15.378-6.472 22.5z" fill="#b6e6fa"/><path d="m78.749 181.001h-22.5c-8.248 0-15 6.75-15 15s6.752 15 15 15h22.5c-8.248 0-15-6.75-15-15s6.751-15 15-15z" fill="#adb9c8"/><path d="m78.749 211.001h-22.5v37.499l-15 30v22.5c8.811 0 15.878-3.442 22.5-7.509v-7.491l15-30z" fill="#3ca6e5"/><path d="m63.749 293.49c-6.622 4.067-13.689 7.509-22.5 7.509v188.5l15 15h30l-22.5-22.5z" fill="#b6e6fa"/><path d="m198.749 402.75v-60h-60v60h-30v60h120v-60z" fill="#fff5cc"/></g><g><path d="m258.75 248.5h-15v-15h15zm-30.001 0h-15v-15h15zm-24.958-149.999h-15v-15h15z" fill="#fff"/></g></g><g><path d="m303.749 196.001c0-12.406-10.094-22.5-22.5-22.5h-225c-12.407 0-22.5 10.093-22.5 22.499 0 9.778 6.271 18.115 15 21.211v29.519l-15 30v215.877l19.394 19.393h153.106v-15h-146.893l-10.606-10.606v-178.597c9.544-1.783 17.132-6.693 23.982-11.137 7.212-4.678 13.44-8.718 20.822-8.718s13.611 4.04 20.823 8.719c8.555 5.549 18.25 11.838 31.482 11.838h142.891v177.895l-10.608 10.606h-26.893v15h33.106l19.394-19.394v-215.877l-15-30v-29.519c8.729-3.095 15-11.432 15-21.209zm-247.5-7.5h225c4.136 0 7.5 3.364 7.5 7.5s-3.364 7.5-7.5 7.5h-225c-4.135 0-7.5-3.365-7.5-7.501 0-4.135 3.365-7.499 7.5-7.499zm89.609 104.998c-8.792 0-15.849-4.577-23.319-9.423-8.046-5.219-17.165-11.134-28.986-11.134s-20.939 5.915-28.985 11.134c-5.229 3.392-10.258 6.646-15.819 8.297v-12.103l12.136-24.27h47.865v-15h-45v-22.499h210v31.77l15 30v13.229h-142.892z"/><path d="m221.249 497h15v15h-15z"/><path d="m455.751 53.502h-235.186c-4.482-25.639-30.38-53.502-51.816-53.502s-47.334 27.863-51.816 53.502h-15.685v37.5c0 28.948 23.551 52.499 52.5 52.499h30c26.403 0 48.315-19.591 51.966-44.999h182.536v-15h-182.001v-15h219.501c4.136 0 7.5 3.364 7.5 7.5s-3.364 7.5-7.5 7.5h-22.5v15h22.5c12.406 0 22.5-10.094 22.5-22.5s-10.093-22.5-22.499-22.5zm-311.116-22.992c7.872-9.422 17.337-15.51 24.114-15.51s16.242 6.088 24.114 15.51c6.095 7.295 10.477 15.569 12.359 22.992h-72.945c1.881-7.424 6.263-15.697 12.358-22.992zm76.614 60.492c0 20.677-16.822 37.499-37.5 37.499h-30c-20.678 0-37.5-16.822-37.5-37.499v-22.5h105z"/><path d="m206.249 335.25h-75v60h-30v75h135v-75h-30zm-60 15h45v45h-45zm-30 60h45v45h-45zm105 45h-45v-45h45z"/></g></g></svg>