<svg id="Layer_1" data-name="Layer 1" xmlns="http://www.w3.org/2000/svg" viewBox="0 0 246.77 82.27"><path d="M243.45,86H126.32a7.41,7.41,0,0,1-7.43-7.39V35.71c0-4.08,3.33-7.39,8.43-7.39H244.45c3.11,0,6.44,3.31,6.44,7.39V78.57A7.42,7.42,0,0,1,243.45,86Z" transform="translate(-4.11 -3.69)" style="fill:#686868"/><path d="M130.17,62.82H13.05a7.42,7.42,0,0,1-7.44-7.39V12.57c0-4.08,3.33-7.39,8.44-7.39H131.17c3.11,0,6.44,3.31,6.44,7.39V55.43A7.42,7.42,0,0,1,130.17,62.82Z" transform="translate(-4.11 -3.69)" style="fill:#fff"/><path d="M130.17,64.32H13.05a8.93,8.93,0,0,1-8.94-8.89V12.57c0-5.15,4.18-8.88,9.94-8.88H131.17c4.15,0,7.93,4.23,7.93,8.88V55.43A8.92,8.92,0,0,1,130.17,64.32ZM14.05,6.68c-4.09,0-7,2.42-7,5.89V55.43a5.93,5.93,0,0,0,6,5.9H130.17a5.93,5.93,0,0,0,5.94-5.9V12.57c0-3.26-2.7-5.89-4.94-5.89Z" transform="translate(-4.11 -3.69)" style="fill:#c6c6c6"/><path d="M152.87,44.7H167l-.38,4h-9.92l-.61,6.39h9l-.41,4h-9l-1,10.41h-4.18Z" transform="translate(-4.11 -3.69)" style="fill:#fff"/><path d="M170.41,43.37h4.22l-2.47,26.07H168Z" transform="translate(-4.11 -3.69)" style="fill:#fff"/><path d="M184.57,58.61a15.48,15.48,0,0,1,4.07.68l.19-1.74a3,3,0,0,0,0-.5v-.42a3,3,0,0,0-.63-2.12,2.69,2.69,0,0,0-2.07-.69,3.77,3.77,0,0,0-2.35.7,2.75,2.75,0,0,0-1.07,1.92h-4.56a5.93,5.93,0,0,1,2.49-4.58,9.73,9.73,0,0,1,5.49-1.42q6.89,0,6.88,6.19v.5a4,4,0,0,1,0,.57l-1.1,11.74H188.3a10,10,0,0,1-.08-1.22c0-.4,0-.82,0-1.25A6,6,0,0,1,183,70a6.52,6.52,0,0,1-4.68-1.56,5,5,0,0,1-1.52-3.76A5.27,5.27,0,0,1,179.18,60,9.3,9.3,0,0,1,184.57,58.61Zm3.8,3.65a9.79,9.79,0,0,0-3-.61,8.47,8.47,0,0,0-1.84.15,3.62,3.62,0,0,0-1.12.46,2,2,0,0,0-1.1,1.78,2.23,2.23,0,0,0,.72,1.75,2.69,2.69,0,0,0,1.86.65,4.41,4.41,0,0,0,1.85-.33,4.36,4.36,0,0,0,1.27-.89A4.94,4.94,0,0,0,188.37,62.26Z" transform="translate(-4.11 -3.69)" style="fill:#fff"/><path d="M205.06,50.44a6.52,6.52,0,0,1,4.8,1.58,4.74,4.74,0,0,1,1.41,4h-3.91a1.74,1.74,0,0,0-.65-1.41,3,3,0,0,0-1.94-.53,3.41,3.41,0,0,0-2.05.55,1.82,1.82,0,0,0-.84,1.31c-.1.86.47,1.5,1.71,1.9l3.88,1.67a6.76,6.76,0,0,1,2.77,1.85,3.3,3.3,0,0,1,.82,2.56,6,6,0,0,1-.74,2.49,6.46,6.46,0,0,1-1.63,1.84A8.57,8.57,0,0,1,203.18,70,7.82,7.82,0,0,1,198,68.36a5,5,0,0,1-1.63-4.58h3.87a2,2,0,0,0,.71,1.93,3.66,3.66,0,0,0,2.26.61,3.78,3.78,0,0,0,2.28-.61,2.07,2.07,0,0,0,.93-1.42,1.4,1.4,0,0,0-.36-1.24,4.78,4.78,0,0,0-1.49-.79L201,60.77q-3.87-1.59-3.5-5.09a5.05,5.05,0,0,1,2.25-3.8A9.13,9.13,0,0,1,205.06,50.44Z" transform="translate(-4.11 -3.69)" style="fill:#fff"/><path d="M220.14,53.86a6.14,6.14,0,0,1,5.47-3.42,4.89,4.89,0,0,1,4.45,2.28c.86,1.37,1.19,3.34,1,5.93l-1,10.79h-4.18l1-10.79a4.24,4.24,0,0,0-.57-3,2.66,2.66,0,0,0-2.26-1A3.79,3.79,0,0,0,221.26,56a7.56,7.56,0,0,0-1.69,4.16v.11l-.87,9.2h-4.18L217,43.37h4.22Z" transform="translate(-4.11 -3.69)" style="fill:#fff"/><path d="M31,21.78V31.92l9.73-10.14h6.16L36.05,32.87,47.64,46.44H41.82L33.05,36l-2,2v8.4H26.51V21.78Z" transform="translate(-4.11 -3.69)" style="fill:#f94848"/><path d="M56.67,35.65a21.33,21.33,0,0,1,5.09.72V34.54A4.38,4.38,0,0,0,61,31.68a3.13,3.13,0,0,0-2.54-.94,4.5,4.5,0,0,0-2.72.71,2.34,2.34,0,0,0-.95,2h-4.9a5,5,0,0,1,2.22-4.56,11.66,11.66,0,0,1,6.21-1.4q5.7,0,7.38,4a8.36,8.36,0,0,1,.57,3.23V46.44H62.33L62,44a5.93,5.93,0,0,1-5.47,3A8.08,8.08,0,0,1,51,45.22,5.46,5.46,0,0,1,49.15,41a4.54,4.54,0,0,1,2-4A9.62,9.62,0,0,1,56.67,35.65Zm5.09,3.57a15.82,15.82,0,0,0-4.18-.61q-3.64,0-3.65,2.43a2.27,2.27,0,0,0,.84,1.77,4,4,0,0,0,2.68.74,4.06,4.06,0,0,0,3-1.23A4.56,4.56,0,0,0,61.76,39.22Z" transform="translate(-4.11 -3.69)" style="fill:#f94848"/><path d="M76.31,31.62c1.11-2.66,2.79-4,5-4a6.83,6.83,0,0,1,1.64.26l-.08,4.49a10.06,10.06,0,0,0-2.09-.23c-3,0-4.48,2.07-4.48,6.19v8.1H71.82V27.93h4.49Z" transform="translate(-4.11 -3.69)" style="fill:#f94848"/><path d="M98.34,46a11.62,11.62,0,0,1-4,1,8.38,8.38,0,0,1-2.53-.34,5.74,5.74,0,0,1-1.92-1,5.47,5.47,0,0,1-1.75-4.29V31H85.61V28h2.58V23.11h4.49V28h5v3h-5V41.16q0,2.28,2.16,2.28a9.25,9.25,0,0,0,2.85-.61Z" transform="translate(-4.11 -3.69)" style="fill:#f94848"/><path d="M114.22,43.09a5.84,5.84,0,0,1-5.62,3.69q-4.91,0-6.46-3.84a8.15,8.15,0,0,1-.57-3.23V27.93h4.48V39.26a3.7,3.7,0,0,0,.88,2.71,2.88,2.88,0,0,0,2.15.9,5.63,5.63,0,0,0,2.14-.36,4.18,4.18,0,0,0,1.52-1.09,6.74,6.74,0,0,0,1.48-4.37V27.93h4.49V46.44h-4.49Z" transform="translate(-4.11 -3.69)" style="fill:#f94848"/></svg>