<?xml version="1.0" encoding="iso-8859-1"?>
<!-- Generator: Adobe Illustrator 19.0.0, SVG Export Plug-In . SVG Version: 6.00 Build 0)  -->
<svg version="1.1" id="Layer_1" xmlns="http://www.w3.org/2000/svg" xmlns:xlink="http://www.w3.org/1999/xlink" x="0px" y="0px"
	 viewBox="0 0 511.999 511.999" style="enable-background:new 0 0 511.999 511.999;" xml:space="preserve">
<ellipse transform="matrix(-0.2877 -0.9577 0.9577 -0.2877 36.146 492.3328)" style="fill:#CC722E;" cx="201.157" cy="232.725" rx="176.282" ry="194.186"/>
<path style="fill:#C15D1A;" d="M99.265,288.585C71.253,195.343,131.811,94.741,234.525,63.883c6.24-1.874,12.493-3.443,18.74-4.726
	c-32.516-6.839-67.855-5.779-102.82,4.726C47.731,94.741-12.827,195.343,15.185,288.585
	c26.31,87.576,121.398,137.505,217.961,117.681C170.14,393.016,117.742,350.087,99.265,288.585z"/>
<path style="fill:#CC722E;" d="M164.482,287.629c0,93.646,75.916,169.562,169.562,169.562s169.562-75.916,169.562-169.562"/>
<path style="fill:#C15D1A;" d="M236.438,287.629h-71.956c0,93.646,75.916,169.562,169.562,169.562
	c12.347,0,24.381-1.332,35.978-3.838C293.66,436.852,236.438,368.928,236.438,287.629z"/>
<path style="fill:#333333;" d="M361.878,192.74c2.156-6.201,1.726-14.033-1.748-21.411c-6.014-12.821-18.929-19.43-28.836-14.779
	c-9.907,4.662-13.043,18.824-7.016,31.634c0.56,1.177,1.166,2.307,1.83,3.381"/>
<ellipse style="fill:#FFFFFF;" cx="334.038" cy="287.63" rx="169.56" ry="96.186"/>
<path style="fill:#F2F2F2;" d="M466.406,287.629c0,11.411-11.633,25.293-32.496,36.715c-11.015,6.026-24.594,11.364-40.387,15.304
	c-17.321,4.324-37.298,6.958-59.479,6.958c-42.427,0-76.799-9.627-99.866-22.263c-20.864-11.422-32.496-25.304-32.496-36.715
	c0-24.045,51.565-58.978,132.361-58.978c32.204,0,59.759,5.548,81.263,13.742C447.757,254.772,466.406,273.164,466.406,287.629z"/>
<path style="fill:#CCCCCC;" d="M415.307,242.393c-6.106,53.147-58.4,59.208-75.714,59.751c-1.835-0.037-3.681-0.062-5.548-0.062
	c-42.427,0-76.799,9.627-99.866,22.263c23.066,12.634,57.439,22.263,99.866,22.263s76.799-9.627,99.866-22.263
	c20.864-11.422,32.496-25.304,32.496-36.715C466.406,273.164,447.757,254.772,415.307,242.393z"/>
<ellipse transform="matrix(-0.4255 -0.905 0.905 -0.4255 280.6143 439.2393)" style="fill:#333333;" cx="279.732" cy="130.546" rx="25.643" ry="19.815"/>
<path d="M458.083,212.315c-24.174-13.713-54.055-22.923-86.503-26.947c0.123-5.84-1.176-11.919-3.852-17.603
	c-3.694-7.875-9.635-14.212-16.73-17.847c-7.698-3.942-16.178-4.294-23.279-0.962c-11.88,5.59-17.259,20.142-13.835,34.772
	c-39.122,2.547-75.446,12.456-103.88,28.587c-34.768,19.722-53.916,46.47-53.916,75.314c0,43.546,15.732,83.482,41.798,114.444
	c-81.116,2.917-153.03-43.903-174.667-115.902c-11.419-38.017-7.54-79.402,10.923-116.532c2.064-4.151,0.372-9.189-3.779-11.252
	c-4.148-2.064-9.186-0.373-11.252,3.778C-1.257,203.129-5.507,248.884,7.145,291.001c23.154,77.052,98.062,127.99,183.563,127.99
	c7.318,0,14.72-0.397,22.167-1.159c31.795,29.609,74.399,47.754,121.169,47.754c98.126,0,177.955-79.83,177.955-177.955
	C511.999,258.784,492.851,232.037,458.083,212.315z M334.859,164.147c3.224-1.513,6.699-0.205,8.486,0.711
	c3.747,1.919,7.095,5.577,9.191,10.047c1.362,2.893,2.098,5.956,2.222,8.863c-6.831-0.458-13.738-0.717-20.715-0.717
	c-0.946,0-1.882,0.031-2.826,0.039C328.073,175.058,329.598,166.623,334.859,164.147z M334.044,448.798
	c-69.385,0-128.666-44.074-151.327-105.694c3.662,3.452,7.681,6.799,12.067,10.021c3.737,2.745,8.988,1.942,11.732-1.795
	c2.744-3.735,1.94-8.988-1.795-11.733c-26.321-19.338-31.847-38.934-31.847-51.969c0-22.54,16.128-44.102,45.411-60.713
	c30.784-17.462,71.894-27.079,115.758-27.079s84.974,9.617,115.757,27.079c29.284,16.611,45.411,38.174,45.411,60.713
	s-16.128,44.102-45.411,60.713c-30.784,17.462-71.894,27.079-115.758,27.079c-38.771,0-76.316-7.758-105.721-21.845
	c-4.177-2.003-9.192-0.238-11.195,3.942c-2.003,4.18-0.238,9.193,3.942,11.195c31.621,15.15,71.742,23.493,112.972,23.493
	c46.72,0,90.771-10.393,124.04-29.266c10.571-5.996,19.689-12.645,27.273-19.802C462.685,404.741,403.414,448.798,334.044,448.798z"
	/>
<path d="M334.044,355.003c37.662,0,73.28-7.596,100.294-21.391c25.333-12.935,40.456-30.126,40.456-45.984
	c0-21.598-27.456-44.56-68.321-57.137c-4.424-1.362-9.126,1.121-10.49,5.553c-1.364,4.43,1.122,9.127,5.553,10.491
	c38.952,11.988,56.472,31.247,56.472,41.093c0,7.491-9.679,19.992-31.305,31.034c-24.694,12.61-57.603,19.554-92.661,19.554
	c-29.323,0-57.121-4.875-79.888-13.843c17.399-6.86,43.934-13.842,79.888-13.842c12.736,0,25.237,0.904,37.153,2.688
	c4.581,0.685,8.856-2.473,9.542-7.058c0.686-4.585-2.473-8.857-7.058-9.543c-12.737-1.906-26.073-2.873-39.638-2.873
	c-37.547,0-72.679,7.469-99.612,21.076c-16.755-9.999-24.353-20.562-24.353-27.194c0-7.491,9.679-19.992,31.305-31.034
	c24.694-12.61,57.603-19.554,92.661-19.554c12.498,0,24.773,0.871,36.485,2.587c4.586,0.671,8.848-2.5,9.522-7.087
	c0.673-4.586-2.501-8.85-7.087-9.521c-12.516-1.834-25.61-2.764-38.919-2.764c-37.662,0-73.28,7.596-100.294,21.391
	c-25.333,12.935-40.456,30.126-40.456,45.984s15.124,33.048,40.456,45.984C260.763,347.406,296.382,355.003,334.044,355.003z"/>
<path d="M37.948,145.917c3.752,2.726,8.997,1.896,11.724-1.853c24.675-33.942,61.321-59.562,103.188-72.138
	c46.848-14.078,95.98-11.044,138.346,8.542c42.023,19.427,72.763,53.004,86.562,94.548c1.171,3.522,4.447,5.75,7.964,5.75
	c0.876,0,1.769-0.139,2.647-0.43c4.399-1.461,6.78-6.212,5.319-10.611c-15.274-45.991-49.172-83.101-95.449-104.494
	c-46.09-21.308-99.441-24.639-150.218-9.381c-45.363,13.627-85.117,41.45-111.936,78.344
	C33.369,137.942,34.198,143.191,37.948,145.917z"/>
<path d="M265.238,99.754c-14.076,6.617-19.032,25.818-11.047,42.803c6.137,13.054,18.16,21.056,29.786,21.056
	c3.5,0,6.965-0.725,10.221-2.257c14.076-6.617,19.032-25.818,11.047-42.802l0,0C297.26,101.57,279.313,93.138,265.238,99.754z
	 M287.057,146.165c-5.598,2.633-13.696-2.288-17.676-10.751c-3.978-8.462-2.604-17.836,2.999-20.47
	c1.026-0.482,2.135-0.712,3.289-0.712c5.141,0,11.136,4.551,14.385,11.461C294.033,134.158,292.66,143.531,287.057,146.165z"/>
<g>
</g>
<g>
</g>
<g>
</g>
<g>
</g>
<g>
</g>
<g>
</g>
<g>
</g>
<g>
</g>
<g>
</g>
<g>
</g>
<g>
</g>
<g>
</g>
<g>
</g>
<g>
</g>
<g>
</g>
</svg>
