<?xml version="1.0" encoding="iso-8859-1"?>
<!-- Generator: Adobe Illustrator 19.0.0, SVG Export Plug-In . SVG Version: 6.00 Build 0)  -->
<svg version="1.1" id="Layer_1" xmlns="http://www.w3.org/2000/svg" xmlns:xlink="http://www.w3.org/1999/xlink" x="0px" y="0px"
	 viewBox="0 0 512 512" style="enable-background:new 0 0 512 512;" xml:space="preserve">
<circle style="fill:#4CA1E0;" cx="57.559" cy="383.628" r="48.666"/>
<path style="fill:#368CC1;" d="M48.659,383.633c0-19.794,11.823-36.815,28.785-44.421c-6.073-2.724-12.799-4.25-19.886-4.25
	c-26.88,0-48.671,21.791-48.671,48.671c0,26.88,21.791,48.67,48.671,48.67c7.087,0,13.813-1.527,19.886-4.25
	C60.482,420.448,48.659,403.426,48.659,383.633z"/>
<circle style="fill:#4CA1E0;" cx="154.899" cy="383.628" r="48.666"/>
<path style="fill:#368CC1;" d="M145.999,383.633c0-19.794,11.823-36.815,28.785-44.421c-6.073-2.724-12.799-4.25-19.886-4.25
	c-26.88,0-48.671,21.791-48.671,48.671c0,26.88,21.791,48.67,48.671,48.67c7.087,0,13.813-1.527,19.886-4.25
	C157.822,420.448,145.999,403.426,145.999,383.633z"/>
<circle style="fill:#4CA1E0;" cx="252.243" cy="383.628" r="48.666"/>
<path style="fill:#368CC1;" d="M243.34,383.633c0-19.794,11.823-36.815,28.785-44.421c-6.073-2.724-12.799-4.25-19.886-4.25
	c-26.88,0-48.671,21.791-48.671,48.671c0,26.88,21.791,48.67,48.671,48.67c7.087,0,13.813-1.527,19.886-4.25
	C255.163,420.448,243.34,403.426,243.34,383.633z"/>
<circle style="fill:#4CA1E0;" cx="349.576" cy="383.628" r="48.666"/>
<path style="fill:#368CC1;" d="M340.68,383.633c0-19.794,11.823-36.815,28.785-44.421c-6.073-2.724-12.799-4.25-19.886-4.25
	c-26.88,0-48.671,21.791-48.671,48.671c0,26.88,21.791,48.67,48.671,48.67c7.087,0,13.813-1.527,19.886-4.25
	C352.503,420.448,340.68,403.426,340.68,383.633z"/>
<circle style="fill:#4CA1E0;" cx="106.233" cy="298.22" r="48.666"/>
<path style="fill:#368CC1;" d="M97.33,298.222c0-19.794,11.823-36.815,28.785-44.421c-6.073-2.724-12.799-4.25-19.886-4.25
	c-26.88,0-48.671,21.791-48.671,48.671s21.791,48.67,48.671,48.67c7.087,0,13.813-1.527,19.886-4.25
	C109.153,335.037,97.33,318.016,97.33,298.222z"/>
<circle style="fill:#4CA1E0;" cx="203.565" cy="298.22" r="48.666"/>
<path style="fill:#368CC1;" d="M194.67,298.222c0-19.794,11.823-36.815,28.785-44.421c-6.073-2.724-12.799-4.25-19.886-4.25
	c-26.88,0-48.671,21.791-48.671,48.671s21.791,48.67,48.671,48.67c7.087,0,13.813-1.527,19.886-4.25
	C206.493,335.037,194.67,318.016,194.67,298.222z"/>
<circle style="fill:#4CA1E0;" cx="300.909" cy="298.22" r="48.666"/>
<path style="fill:#368CC1;" d="M292.011,298.222c0-19.794,11.823-36.815,28.785-44.421c-6.073-2.724-12.799-4.25-19.886-4.25
	c-26.88,0-48.671,21.791-48.671,48.671s21.791,48.67,48.671,48.67c7.087,0,13.813-1.527,19.886-4.25
	C303.833,335.037,292.011,318.016,292.011,298.222z"/>
<circle style="fill:#4CA1E0;" cx="398.253" cy="298.22" r="48.666"/>
<path style="fill:#368CC1;" d="M389.351,298.222c0-19.794,11.823-36.815,28.785-44.421c-6.073-2.724-12.799-4.25-19.886-4.25
	c-26.88,0-48.671,21.791-48.671,48.671s21.791,48.67,48.671,48.67c7.087,0,13.813-1.527,19.886-4.25
	C401.174,335.037,389.351,318.016,389.351,298.222z"/>
<circle style="fill:#4CA1E0;" cx="154.899" cy="213.297" r="48.666"/>
<path style="fill:#368CC1;" d="M145.999,213.296c0-19.794,11.823-36.815,28.785-44.421c-6.073-2.724-12.799-4.25-19.886-4.25
	c-26.88,0-48.671,21.791-48.671,48.671s21.791,48.67,48.671,48.67c7.087,0,13.813-1.527,19.886-4.25
	C157.822,250.109,145.999,233.088,145.999,213.296z"/>
<circle style="fill:#4CA1E0;" cx="252.243" cy="213.297" r="48.666"/>
<path style="fill:#368CC1;" d="M243.34,213.296c0-19.794,11.823-36.815,28.785-44.421c-6.073-2.724-12.799-4.25-19.886-4.25
	c-26.88,0-48.671,21.791-48.671,48.671s21.791,48.67,48.671,48.67c7.087,0,13.813-1.527,19.886-4.25
	C255.163,250.109,243.34,233.088,243.34,213.296z"/>
<circle style="fill:#4CA1E0;" cx="349.576" cy="213.297" r="48.666"/>
<path style="fill:#368CC1;" d="M340.68,213.296c0-19.794,11.823-36.815,28.785-44.421c-6.073-2.724-12.799-4.25-19.886-4.25
	c-26.88,0-48.671,21.791-48.671,48.671s21.791,48.67,48.671,48.67c7.087,0,13.813-1.527,19.886-4.25
	C352.503,250.109,340.68,233.088,340.68,213.296z"/>
<circle style="fill:#4CA1E0;" cx="203.565" cy="128.374" r="48.666"/>
<path style="fill:#368CC1;" d="M194.67,128.368c0-19.794,11.823-36.815,28.785-44.421c-6.073-2.724-12.799-4.25-19.886-4.25
	c-26.88,0-48.671,21.791-48.671,48.671s21.791,48.67,48.671,48.67c7.087,0,13.813-1.527,19.886-4.25
	C206.493,165.183,194.67,148.162,194.67,128.368z"/>
<circle style="fill:#4CA1E0;" cx="300.909" cy="128.374" r="48.666"/>
<path style="fill:#368CC1;" d="M292.011,128.368c0-19.794,11.823-36.815,28.785-44.421c-6.073-2.724-12.799-4.25-19.886-4.25
	c-26.88,0-48.671,21.791-48.671,48.671s21.791,48.67,48.671,48.67c7.087,0,13.813-1.527,19.886-4.25
	C303.833,165.183,292.011,148.162,292.011,128.368z"/>
<path d="M510.599,114.767c-2.644-4.136-8.141-5.344-12.278-2.7l-14.26,9.119l-15.323-7.925c-4.362-2.253-9.725-0.549-11.979,3.813
	c-2.254,4.361-0.548,9.725,3.813,11.979l6.186,3.199l-24.911,15.931l-86.149-37.454c-7.467-23.135-29.197-39.921-54.784-39.921
	c-20.468,0-38.462,10.748-48.67,26.887c-10.207-16.139-28.202-26.887-48.67-26.887c-8.71,0-17.082,1.899-24.883,5.644
	c-4.426,2.124-6.292,7.434-4.169,11.861c2.125,4.427,7.44,6.292,11.861,4.167c5.382-2.583,11.165-3.892,17.191-3.892
	c21.935,0,39.78,17.846,39.78,39.78s-17.846,39.78-39.78,39.78s-39.78-17.846-39.78-39.78c0-7.71,2.206-15.185,6.379-21.618
	c2.672-4.119,1.499-9.624-2.619-12.296c-4.119-2.672-9.624-1.501-12.296,2.619c-6.047,9.32-9.243,20.141-9.243,31.294
	c0,9.919,2.522,19.26,6.959,27.416c-30.847,1.024-55.629,26.42-55.629,57.51c0,9.919,2.522,19.26,6.959,27.416
	c-30.847,1.024-55.629,26.42-55.629,57.51c0,10.116,2.632,19.624,7.234,27.894C24.929,326.997,0,352.45,0,383.633
	c0,31.738,25.821,57.559,57.559,57.559c20.468,0,38.462-10.748,48.67-26.887c10.207,16.139,28.202,26.887,48.67,26.887
	s38.462-10.748,48.67-26.887c10.207,16.139,28.202,26.887,48.67,26.887s38.462-10.748,48.67-26.887
	c10.207,16.139,28.202,26.887,48.67,26.887c20.165,0,38.509-10.268,49.074-27.467c2.57-4.184,1.261-9.657-2.922-12.227
	c-4.185-2.57-9.659-1.261-12.227,2.922c-7.306,11.894-19.988,18.993-33.925,18.993c-21.935,0-39.78-17.846-39.78-39.78
	s17.846-39.78,39.78-39.78s39.78,17.846,39.78,39.78c0,4.909,3.979,8.889,8.889,8.889s8.889-3.98,8.889-8.889
	c0-10.116-2.632-19.624-7.234-27.893c30.974-0.882,55.904-26.335,55.904-57.517c0-16.04-6.602-30.561-17.222-41.009l12.329-93.728
	l56.982-36.44C512.036,124.399,513.243,118.902,510.599,114.767z M292.02,213.272c0,0.007,0,0.015,0,0.024c0,0.008,0,0.015,0,0.024
	c-0.013,21.925-17.853,39.758-39.78,39.758c-21.935,0-39.78-17.846-39.78-39.78s17.846-39.78,39.78-39.78
	C274.168,173.514,292.008,191.347,292.02,213.272z M203.57,258.44c21.935,0,39.78,17.846,39.78,39.78
	c0,21.934-17.846,39.78-39.78,39.78s-39.78-17.846-39.78-39.78C163.79,276.287,181.635,258.44,203.57,258.44z M261.129,298.222
	c0-21.935,17.846-39.78,39.78-39.78c21.934,0,39.78,17.846,39.78,39.78c0,21.934-17.846,39.78-39.78,39.78
	S261.129,320.157,261.129,298.222z M377.71,241.425c-7.513,7.513-17.504,11.652-28.128,11.652c-10.625,0-20.616-4.138-28.129-11.652
	c-7.507-7.509-11.645-17.489-11.652-28.106c0-0.007,0-0.015,0-0.024c0-0.008,0-0.015,0-0.024
	c0.006-10.617,4.144-20.598,11.653-28.106c7.513-7.513,17.504-11.652,28.128-11.652c10.624,0,20.616,4.138,28.128,11.652
	C393.221,200.676,393.221,225.914,377.71,241.425z M390.281,172.595c-10.415-10.415-24.12-16.331-38.769-16.813
	c3.998-7.35,6.439-15.662,6.884-24.492l65.402,28.434l-28.704,18.357C393.62,176.179,392.027,174.34,390.281,172.595z
	 M300.911,88.588c21.935,0,39.78,17.846,39.78,39.78s-17.846,39.78-39.78,39.78c-21.934,0-39.78-17.846-39.78-39.78
	S278.975,88.588,300.911,88.588z M154.899,173.514c21.935,0,39.78,17.846,39.78,39.78s-17.846,39.78-39.78,39.78
	s-39.78-17.846-39.78-39.78S132.965,173.514,154.899,173.514z M106.23,258.44c21.935,0,39.78,17.846,39.78,39.78
	c0,21.934-17.846,39.78-39.78,39.78s-39.78-17.846-39.78-39.78C66.449,276.287,84.294,258.44,106.23,258.44z M57.559,423.413
	c-21.934,0-39.78-17.845-39.78-39.78s17.846-39.78,39.78-39.78s39.78,17.846,39.78,39.78S79.494,423.413,57.559,423.413z
	 M154.899,423.413c-21.935,0-39.78-17.846-39.78-39.78s17.846-39.78,39.78-39.78s39.78,17.846,39.78,39.78
	S176.835,423.413,154.899,423.413z M252.24,423.413c-21.935,0-39.78-17.846-39.78-39.78s17.846-39.78,39.78-39.78
	s39.78,17.846,39.78,39.78S274.175,423.413,252.24,423.413z M398.251,338.002c-21.935,0-39.78-17.846-39.78-39.78
	c0-21.934,17.846-39.78,39.78-39.78s39.78,17.846,39.78,39.78C438.031,320.156,420.186,338.002,398.251,338.002z M422.148,245.878
	c-6.731-3.085-14.152-4.908-21.965-5.168c7.853-14.513,9.022-31.708,3.5-47.02l27.656-17.686L422.148,245.878z"/>
<g>
</g>
<g>
</g>
<g>
</g>
<g>
</g>
<g>
</g>
<g>
</g>
<g>
</g>
<g>
</g>
<g>
</g>
<g>
</g>
<g>
</g>
<g>
</g>
<g>
</g>
<g>
</g>
<g>
</g>
</svg>
