<?xml version="1.0" encoding="iso-8859-1"?>
<!-- Generator: Adobe Illustrator 19.0.0, SVG Export Plug-In . SVG Version: 6.00 Build 0)  -->
<svg version="1.1" id="Layer_1" xmlns="http://www.w3.org/2000/svg" xmlns:xlink="http://www.w3.org/1999/xlink" x="0px" y="0px"
	 viewBox="0 0 512.001 512.001" style="enable-background:new 0 0 512.001 512.001;" xml:space="preserve">
<path style="fill:#F94848;" d="M440.271,344.78c-78.406,78.406-205.536,78.406-283.942,0l141.971-238.365L440.271,344.78z"/>
<path style="fill:#23B75F;" d="M440.274,344.781h63.466c-47.274,47.285-155.437,68.235-216.81,58.465
	C342.035,406.374,398.176,386.878,440.274,344.781z"/>
<polygon style="fill:#C7F492;" points="476.853,299.632 503.739,344.781 440.274,344.781 413.387,299.632 "/>
<polygon style="fill:#F97D7D;" points="361.784,106.416 476.853,299.632 413.387,299.632 298.308,106.416 "/>
<path style="fill:#A3E261;" d="M440.271,344.781c-78.401,78.401-205.531,78.401-283.943,0l26.897-45.148
	c63.554,63.554,166.606,63.554,230.159,0L440.271,344.781z"/>
<path style="fill:#F94848;" d="M292.203,344.781c-78.406,78.406-205.536,78.406-283.942,0l141.971-238.365L292.203,344.781z"/>
<path style="fill:#23B75F;" d="M292.207,344.781h63.466c-47.274,47.285-155.437,68.235-216.81,58.465
	C193.968,406.374,250.109,386.878,292.207,344.781z"/>
<polygon style="fill:#C7F492;" points="328.786,299.632 355.672,344.781 292.207,344.781 265.32,299.632 "/>
<polygon style="fill:#F97D7D;" points="213.717,106.416 328.786,299.632 265.32,299.632 150.241,106.416 "/>
<path style="fill:#A3E261;" d="M292.203,344.781c-78.401,78.401-205.531,78.401-283.943,0l26.897-45.148
	c63.554,63.554,166.606,63.554,230.159,0L292.203,344.781z"/>
<path d="M362.77,340.557l-141.963-238.37c-1.49-2.501-4.187-4.034-7.098-4.034l-63.477,0.001c-2.911,0-5.607,1.532-7.098,4.034
	L1.164,340.553c-1.934,3.248-1.418,7.395,1.257,10.068c37.532,37.532,85.903,57.766,135.129,60.732l-0.009,0.055
	c10.284,1.637,21.782,2.439,34.023,2.439c25.822,0,54.946-3.57,82.933-10.408c46.255-11.301,84.261-30.058,107.017-52.814
	C364.188,347.952,364.705,343.805,362.77,340.557z M296.899,336.52l-17.048-28.623h44.239l17.047,28.623H296.899z M36.999,312.675
	c10.361,9.173,21.727,17.052,33.936,23.442c1.223,0.641,2.533,0.944,3.824,0.944c2.975,0,5.85-1.613,7.326-4.431
	c2.116-4.042,0.555-9.034-3.487-11.15c-11.943-6.253-23.01-14.067-32.987-23.263l104.623-175.658l31.28,52.519
	c2.335,3.92,7.404,5.205,11.325,2.87c3.92-2.334,5.205-7.405,2.87-11.324l-30.94-51.948l44.246-0.001L314.25,291.375h-44.24
	l-60.96-102.351c-2.335-3.92-7.406-5.204-11.325-2.87c-3.92,2.335-5.205,7.405-2.87,11.324l59.997,100.733
	c-19.902,18.334-44.144,31.098-70.506,37.039c-27.684,6.238-56.512,4.775-83.368-4.232c-4.329-1.452-9.009,0.88-10.459,5.205
	s0.88,9.008,5.205,10.459c17.635,5.914,36.036,8.89,54.487,8.89c12.644,0,25.31-1.398,37.767-4.204
	c28.066-6.325,53.959-19.633,75.494-38.684l18.29,30.707c-73.817,69.118-189.239,69.119-263.058,0L36.999,312.675z M250.575,387.389
	c-1.339,0.327-2.681,0.645-4.025,0.956c17.571-9.108,34.106-20.878,49.012-35.304h37.146
	C311.957,367.396,283.625,379.315,250.575,387.389z"/>
<path d="M510.837,340.557l-141.964-238.37c-1.49-2.501-4.187-4.034-7.098-4.034l-63.477,0.001c-3.115,0-5.827,1.724-7.233,4.268
	l-26.661,44.754c-2.335,3.92-1.051,8.99,2.869,11.325c3.92,2.335,8.99,1.05,11.325-2.869l19.701-33.071l104.622,175.652
	c-9.556,8.807-20.119,16.355-31.486,22.466c-4.018,2.16-5.525,7.169-3.365,11.187c1.491,2.775,4.34,4.351,7.283,4.351
	c1.321,0,2.66-0.317,3.905-0.987c11.577-6.223,22.393-13.793,32.282-22.548l18.291,30.708
	c-38.244,35.762-89.679,54.517-142.163,51.629c-0.259-0.023-0.52-0.036-0.764-0.036c-3.107,0-5.95,1.745-7.36,4.514
	c-1.41,2.769-1.147,6.095,0.682,8.609c1.286,1.769,3.222,2.955,5.383,3.299c10.284,1.637,21.782,2.439,34.024,2.439
	c25.821,0,54.945-3.57,82.932-10.408c46.255-11.301,84.261-30.057,107.017-52.814C512.255,347.952,512.771,343.805,510.837,340.557z
	 M357.081,114.675l105.236,176.7h-44.237L312.835,114.676L357.081,114.675z M427.921,307.898h44.235l17.046,28.622h-44.233
	L427.921,307.898z M398.642,387.389c-1.387,0.339-2.777,0.67-4.167,0.991c17.869-9.25,34.467-21.112,49.179-35.339h37.122
	C460.024,367.396,431.692,379.315,398.642,387.389z"/>
<path d="M123.796,234.604c4.036,0,7.591-3.053,8.173-7.051c0.475-3.267-1.085-6.604-3.924-8.297
	c-3.061-1.825-7.07-1.454-9.734,0.916C112.765,225.106,116.371,234.604,123.796,234.604z"/>
<path d="M175.619,265.532c3.902,0,7.33-2.843,8.096-6.653c0.68-3.385-0.891-6.926-3.852-8.696c-3.147-1.881-7.278-1.432-9.936,1.101
	C164.643,256.319,168.321,265.532,175.619,265.532z"/>
<path d="M349.439,285.81c4.267,0,7.925-3.406,8.236-7.654c0.513-7.009-7.771-11.435-13.311-7.122
	c-2.838,2.211-3.918,6.131-2.621,9.485C342.957,283.657,346.066,285.81,349.439,285.81z"/>
<path d="M394.61,216.942c-5.386,4.985-1.752,14.324,5.606,14.324c4.137,0,7.672-3.155,8.194-7.244
	C409.363,216.563,400.129,211.831,394.61,216.942z"/>
<path d="M319.359,204.942c3.737,0,7.081-2.615,8.004-6.229c1.87-7.32-6.752-13.176-12.865-8.717
	c-2.982,2.174-4.188,6.212-2.846,9.658C312.88,202.807,315.964,204.942,319.359,204.942z"/>
<path d="M246.013,223.743c3.9,0,7.332-2.827,8.096-6.642c0.664-3.319-0.823-6.785-3.682-8.588c-3.106-1.96-7.231-1.609-9.96,0.856
	C234.981,214.321,238.622,223.743,246.013,223.743z"/>
<path d="M130.236,302.677c1.154,3.24,4.322,5.482,7.769,5.482c3.886,0,7.351-2.832,8.107-6.653c1.461-7.38-7.33-12.747-13.219-8.095
	C130.138,295.589,129.057,299.369,130.236,302.677z"/>
<g>
</g>
<g>
</g>
<g>
</g>
<g>
</g>
<g>
</g>
<g>
</g>
<g>
</g>
<g>
</g>
<g>
</g>
<g>
</g>
<g>
</g>
<g>
</g>
<g>
</g>
<g>
</g>
<g>
</g>
</svg>
